<?xml version="1.0" encoding="UTF-8" standalone="no"?>
<!DOCTYPE svg PUBLIC "-//W3C//DTD SVG 1.1//EN" "http://www.w3.org/Graphics/SVG/1.1/DTD/svg11.dtd">
<svg width="100%" height="100%" viewBox="0 0 1366 768" version="1.1" xmlns="http://www.w3.org/2000/svg" xmlns:xlink="http://www.w3.org/1999/xlink" xml:space="preserve" xmlns:serif="http://www.serif.com/" style="fill-rule:evenodd;clip-rule:evenodd;stroke-linejoin:round;stroke-miterlimit:2;">
    <g transform="matrix(1.09745,0,0,1.09745,664.551,364)">
        <g id="drawing-2" serif:id="drawing 2" transform="matrix(1,0,0,1,-297.638,-420.945)">
            <g transform="matrix(1,0,0,1,-0.496132,17.7222)">
                <g id="Layer-1" serif:id="Layer 1">
                    <g id="g844">
                        <path id="path858" d="M295.017,728.021C240.207,696.458 201.189,663.137 162.482,614.84C89.695,524.018 50.397,442.652 38.717,358.586C33.607,321.804 27.597,253.951 25.99,214.907C25.732,208.639 25.356,202.409 25.154,201.063L24.787,198.617L44.193,194.717C78.123,187.897 118.721,177.354 154.627,166.037C197.941,152.385 252.719,130.709 285.658,114.188L296.21,108.895L306.823,114.188C372.089,146.734 466.782,178.324 548.014,194.65L567.754,198.617L567.387,201.063C567.185,202.409 566.809,208.639 566.551,214.907C564.475,265.373 556.381,348.369 550.555,378.937C538.278,443.35 506.144,512.279 457.009,579.599C417.885,633.203 387.812,665.226 349.752,693.812C326.873,710.996 297.419,729.404 295.017,728.021ZM304.695,704.024C334.097,686.806 360.122,666.974 384.094,643.519C421.158,607.254 464.083,549.126 491.41,498.195C510.501,462.612 525.624,421.982 532.703,387.253C539.242,355.173 545.22,294.812 549.34,219.281L549.678,213.072L536.534,210.463C460.308,195.332 380.233,169.23 312.959,137.583C305.571,134.107 298.859,130.799 298.043,130.23C296.763,129.338 294.848,130.013 284.15,135.125C216.426,167.494 137.78,193.633 61.134,209.248C51.351,211.241 43.2,212.872 43.021,212.872C41.58,212.872 45.229,271.187 49.235,312.185C54.731,368.434 59.542,395.65 69.136,424.763C88.813,484.48 119.475,538.245 169.806,601.288C204.065,644.199 241.052,676.838 284.06,702.111C288.089,704.479 292.119,706.894 293.014,707.478C295.568,709.143 296.349,708.912 304.695,704.024ZM286.061,689.249C241.565,663.007 207.469,633.065 173.472,590.376C133.472,540.15 106.423,495.603 88.186,449.92C82.615,435.963 77.627,421.267 78.461,421.267C78.846,421.267 81.426,422.391 84.195,423.765C90.085,426.687 103.687,431.249 110.668,432.643C113.355,433.179 119.937,434.711 125.296,436.047C136.883,438.936 139.149,438.717 144.005,434.241C145.917,432.478 147.695,431.036 147.955,431.036C148.215,431.036 149.168,433.508 150.074,436.531C155.817,455.694 157.157,459.717 159.553,464.985C163.999,474.762 171.745,485.213 182.7,496.215C193.626,507.187 200.415,512.84 224.635,531.13C239.077,542.037 251.513,551.999 259.972,559.438C263.444,562.49 263.564,562.756 263.635,567.498C263.725,573.451 265.513,576.148 273.825,582.864C279.218,587.222 279.467,587.587 281.993,594.875C285.183,604.08 287.55,608.276 291.517,611.76C297.373,616.901 306.634,619.415 313.12,617.624C316.003,616.828 316.272,616.936 319.917,620.38C322.004,622.351 323.891,623.965 324.11,623.965C324.407,623.965 333.231,617.834 338.885,613.7C339.041,613.585 338.164,611.645 336.936,609.388C335.091,605.998 334.882,605.069 335.734,604.042C337.203,602.272 338.864,602.496 341.996,604.885L344.73,606.971L351.635,600.685L358.54,594.399L356.368,591.552L354.196,588.704L356.34,587.001C358.928,584.945 368.208,579.183 382.843,570.546C388.82,567.018 396.803,561.66 400.583,558.637C404.363,555.615 407.864,553.143 408.363,553.143C408.861,553.143 410.531,554.105 412.073,555.281L414.877,557.42L421.308,551.027C424.845,547.51 427.739,544.378 427.739,544.066C427.739,543.754 426.773,542.351 425.592,540.947C423.677,538.672 423.558,538.182 424.494,536.433C425.072,535.354 426.367,533.698 427.373,532.753C429.118,531.113 429.317,531.096 431.781,532.37C433.201,533.104 434.663,533.591 435.031,533.451C435.399,533.312 438.129,530.107 441.098,526.328L446.497,519.457L443.328,516.152C440.507,513.211 440.236,512.579 440.86,510.405C441.655,507.635 441.064,503.288 439.461,500.119C437.863,496.958 431.226,491.424 427.839,490.426C417.92,487.505 409.941,488.954 401.455,495.218C387.728,505.351 368.047,512.463 342.152,516.649C333.965,517.973 327.483,518.424 315.945,518.477L300.615,518.546L295.974,513.661C281.079,497.988 259.66,467.363 236.193,428.187C230.829,419.232 224.516,408.975 222.164,405.393C219.812,401.812 215.785,394.668 213.216,389.519C203.097,369.243 196.991,362.95 161.612,336.335C153.293,330.077 141.907,321.259 136.311,316.74C122.254,305.39 93.846,276.834 83.522,263.677C72.551,249.695 54.019,223.191 54.743,222.52C55.057,222.23 62.823,220.476 72.001,218.622C141.738,204.536 220.393,178.502 280.36,149.658L294.57,142.823L309.666,150.112C369.179,178.846 447.561,204.707 518.251,218.929C527.961,220.883 536.247,222.692 536.663,222.95C537.08,223.207 537.28,225.898 537.109,228.931C533.61,290.893 529.414,338.187 524.557,370.389C514.682,435.861 483.813,503.067 432.202,571.459C399.044,615.397 376.219,639.194 343.485,663.951C330.244,673.965 301.845,692.38 296.581,694.366C295.963,694.599 291.229,692.296 286.061,689.249ZM368.314,493.298C377.036,492.015 386.879,488.189 395.177,482.856L399.654,479.979L395.991,480.408C390.63,481.035 387.311,482.18 380.931,485.599C377.797,487.279 372.814,489.438 369.857,490.398C364.614,492.1 359.172,495.147 363.022,494.226C363.918,494.012 366.299,493.594 368.314,493.298ZM365.057,489.305C376.988,486.378 384.388,481.775 386.255,476.118C388.61,468.98 382.888,463.051 370.756,460.06C362.68,458.069 361.175,458.22 353.661,461.781C349.855,463.584 345.17,465.315 343.25,465.626C338.354,466.422 337.04,468.65 337.57,475.259C338.159,482.587 339.671,484.968 345.634,487.947C351.362,490.809 357.247,491.221 365.057,489.305ZM333.961,482.972C334.978,481.955 335.36,469.715 334.449,467.34C334.18,466.639 331.627,464.401 328.777,462.367C325.927,460.333 321.894,456.573 319.816,454.011C317.738,451.448 315.216,448.911 314.213,448.372C311.373,446.847 298.371,445.435 297.075,446.511C295.284,447.997 294.76,454.817 296.176,458.206C299.694,466.624 310.209,476.775 321.527,482.676C324.394,484.171 332.567,484.366 333.961,482.972ZM419.551,456.068C422.77,448.926 426.258,438.989 425.35,439.55C424.932,439.809 423.497,442.853 422.162,446.314C420.827,449.776 418.977,454.531 418.051,456.882C415.711,462.818 416.767,462.245 419.551,456.068ZM391.401,456.787C396.11,454.028 401.379,448.044 404.042,442.432C405.869,438.583 406.149,436.973 406.04,430.951C405.83,419.349 402.91,415.426 391.893,411.946C384.033,409.463 378.293,408.677 375.64,409.722C372.238,411.062 357.943,425.078 356.969,428.028C356.281,430.113 356.45,432.679 357.752,439.908C360.262,453.847 361.224,455.095 371.632,457.904C379.642,460.066 386.464,459.681 391.401,456.787ZM419.271,444.524C420.185,443.884 422.188,440.678 423.721,437.401C426.337,431.807 426.508,430.92 426.513,422.895C426.521,409.335 423.759,402.295 417.076,398.839C412.774,396.615 411.636,397.192 410.179,402.341C409.45,404.915 407.772,408.975 406.448,411.362C404.713,414.492 404.279,415.987 404.89,416.723C407.11,419.398 408.389,425.192 408.319,432.257C408.24,440.292 408.62,441.223 413.101,443.954C416.457,446 417.081,446.058 419.271,444.524ZM313.606,442.599C314.409,441.796 315.525,439.09 316.085,436.587C316.968,432.644 318.765,429.012 323.522,421.561C324.491,420.044 324.407,419.293 322.871,415.722C321.901,413.468 320.687,408.796 320.173,405.34C319.608,401.539 318.688,398.505 317.845,397.662C316.243,396.06 308.195,394.909 304.192,395.709C300.688,396.41 297.071,400.65 293.639,408.079C289.134,417.829 288.507,426.11 291.652,434.338C292.857,437.492 296.705,441.704 299.486,442.915C303.306,444.579 311.816,444.389 313.606,442.599ZM357.603,421.933C362.723,418.001 370.147,410.952 371.538,408.702C373.699,405.205 373.711,399.046 371.572,391.552C369.651,384.819 368.028,382.403 363.835,380.028C357.431,376.4 344.58,376.108 338.005,379.439C332.735,382.11 325.457,389.476 323.324,394.298C321.32,398.828 321.73,405.326 324.51,413.085C326.864,419.656 328.455,420.653 339.822,422.68C348.726,424.268 354.901,424.008 357.603,421.933L357.603,421.933ZM288.565,413.737C291.519,408.95 294.29,402.568 297.602,392.922C299.398,387.693 301.731,381.857 302.785,379.954C303.84,378.052 304.578,376.495 304.424,376.495C304.27,376.495 302.343,378.784 300.142,381.583C293.028,390.627 288.744,399.574 286.474,410.127C285.055,416.727 285.075,416.383 286.107,416.383C286.561,416.383 287.668,415.192 288.565,413.737ZM419.599,395.686C419.599,394.171 413.058,384.517 407.388,377.662C401.073,370.027 389.241,361.797 386.659,363.242C384.71,364.333 390.226,372.201 396.548,377.35C399.6,379.835 403.862,384.231 406.02,387.118C411.462,394.401 419.599,399.534 419.599,395.686ZM382.966,373.597C387.01,371.238 386.998,369.159 382.914,364.729C375.868,357.084 364.065,353.805 349.47,355.438C342.85,356.179 339.346,357.438 337.409,359.772C336.193,361.237 337.504,364.85 341.59,371.293L343.814,374.8L350.569,375.117C354.284,375.292 362.452,375.395 368.721,375.347C378.622,375.27 380.491,375.041 382.966,373.597L382.966,373.597ZM333.717,359.444C335.508,358.597 336.423,357.901 335.752,357.898C334.109,357.889 327.687,360.897 329.239,360.946C329.911,360.969 331.926,360.292 333.717,359.444ZM321.376,611.648L318.098,608.369L315.022,609.655C308.099,612.547 299.046,610.413 294.418,604.798C293.176,603.291 290.726,598.104 288.973,593.271C285.616,584.011 285.327,583.62 274.809,574.092C271.114,570.744 270.562,569.857 270.781,567.612C270.972,565.657 271.511,564.899 272.949,564.563C274.703,564.154 274.259,563.536 267.658,557.194C258.596,548.488 247.582,539.478 227.891,524.662C198.486,502.538 185.116,490.495 175.377,477.36C168.119,467.571 163.763,458.291 159.481,443.498C153.083,421.388 149.293,417.776 141.71,426.559C139.23,429.431 137.205,431.039 136.06,431.045C133.61,431.06 110.76,425.665 101.3,422.84C92.261,420.14 75.714,412.261 74.599,410.125C71.647,404.471 66.455,369.952 59.44,309.336C56.896,287.361 54.092,251.169 54.092,240.319L54.092,235.486L61.45,245.84C76.216,266.621 81.352,272.969 97.478,290.373C112.053,306.105 127.526,319.431 157.069,341.701C178.808,358.088 180.421,359.408 189.497,368.247C197.876,376.407 200.18,379.659 206.877,392.776C209.964,398.82 214.327,406.513 216.573,409.871C218.819,413.229 223.35,420.555 226.641,426.152C252.102,469.447 275.266,502.363 292.52,519.767C300.837,528.156 302.674,529.657 302.986,528.314C303.757,525.003 304.425,524.842 315.631,525.27C331.992,525.894 352.297,522.886 371.885,516.935C386.878,512.38 395.414,508.355 405.042,501.299C410.934,496.981 410.771,497.062 415.418,496.18C420.612,495.195 426.594,496.832 430.574,500.327C434.191,503.502 434.993,507.273 432.995,511.703L431.539,514.933L434.288,517.77L437.038,520.607L434.867,522.777L432.697,524.947L429.729,523.375L426.761,521.802L424.604,524.61C423.418,526.155 420.525,529.699 418.175,532.486L413.902,537.553L415.936,539.971C418.357,542.847 418.485,544.284 416.482,546.097C414.478,547.91 413.444,547.8 410.355,545.444L407.732,543.444L402.067,548.343C394.868,554.567 385.292,561.1 372.39,568.589C360.495,575.493 347.089,584.221 345.573,586.049C344.676,587.129 344.856,587.782 346.73,590.239L348.949,593.149L347.093,595.125C344.748,597.621 343.8,597.603 340.716,595.008C337.845,592.593 338.086,592.492 330.442,599.332L325.675,603.598L327.457,606.769C329.784,610.91 329.707,611.941 326.947,613.571C324.67,614.916 324.631,614.903 321.376,611.648ZM312.931,603.87C318.087,601.955 322.576,598.817 332.784,589.995C341.935,582.087 358.001,571.015 381.568,556.376C389.231,551.616 398.414,545.105 402.481,541.548C414.589,530.957 426.368,516.448 428.093,509.998C428.611,508.062 428.548,508.082 426.791,510.405C423.072,515.322 418.194,519.081 410.237,523.162C398.671,529.094 396.247,530.942 389.431,539.023C380.762,549.299 371.645,558.663 368.325,560.701C366.752,561.667 361.618,565.222 356.917,568.602C352.216,571.982 345.746,576.466 342.539,578.568C339.332,580.67 333.581,584.898 329.759,587.965C315.285,599.578 304.783,601.815 296.804,594.985C293.613,592.254 293.457,592.204 294.198,594.153C295.702,598.109 299.254,602.661 301.826,603.929C305.18,605.584 308.366,605.567 312.931,603.87L312.931,603.87ZM145.265,429.408C145.265,428.96 145.631,428.594 146.079,428.594C146.527,428.594 146.893,428.96 146.893,429.408C146.893,429.855 146.527,430.222 146.079,430.222C145.631,430.222 145.265,429.855 145.265,429.408Z" style="fill:rgb(157,155,154);fill-rule:nonzero;"/>
                        <path id="path856" d="M282.216,720.039C224.47,684.933 184.213,646.045 134.148,577.005C84.866,509.045 52.838,439.048 41.487,374.495C35.435,340.078 28.09,263.242 25.914,211.574L25.362,198.473L29.031,197.97C43.555,195.979 96.599,183.412 125.728,175.061C179.803,159.558 237.131,138.075 280.469,117.074L296.416,109.346L307.74,115.013C348.457,135.389 411.682,159.255 466.813,175.061C495.823,183.378 548.98,195.978 563.391,197.953L566.941,198.44L566.938,203.824C566.927,217.603 562.562,277.854 559.145,311.371C553.34,368.325 548.421,394.788 537.634,427.104C518.086,485.671 487.372,540.487 439.734,601.833C397.668,656.002 360.32,690.005 309.134,720.734C302.329,724.82 296.467,728.146 296.109,728.126C295.751,728.106 289.499,724.467 282.217,720.039L282.216,720.039ZM306.643,703.018C351.928,676.114 387.082,645.371 420.864,603.129C486.27,521.346 523.073,447.741 535.165,374.534C540.724,340.877 546.089,283.719 549.438,222.466C549.958,212.965 549.953,212.93 548.071,212.522C547.032,212.296 541.237,211.152 535.193,209.979C461.109,195.598 375.008,167.292 309.902,135.912L295.856,129.142L281.817,135.939C227.32,162.326 155.307,187.39 89.91,202.734C77.568,205.629 43.496,212.872 42.215,212.872C42.026,212.872 42.065,215.894 42.3,219.587C42.536,223.281 43.283,235.645 43.961,247.062C46.834,295.44 52.224,349.047 56.976,376.495C67.829,439.186 99.173,507.133 147.322,572.346C184.438,622.615 210.764,650.357 247.428,677.834C263.145,689.614 293.084,708.625 295.916,708.625C296.625,708.625 301.452,706.102 306.643,703.018ZM292.077,692.569C285.57,689.119 268.377,678.263 258.825,671.573C231.146,652.188 207.286,630.45 185.596,604.858C144.331,556.166 109.733,501.799 90.75,455.814C85.62,443.387 78.309,422.829 78.833,422.305C79.035,422.103 82.434,423.393 86.387,425.172C90.339,426.951 96.138,429.166 99.272,430.094C108.636,432.867 133.091,438.362 136.066,438.362C139.364,438.362 142.506,436.849 145.204,433.962C146.289,432.8 147.415,431.85 147.706,431.85C147.997,431.85 149.021,434.506 149.983,437.752C150.944,440.998 152.875,447.487 154.274,452.173C162.268,478.943 176.813,495.489 223.007,530.364C239.656,542.933 257.582,557.379 260.84,560.852C262.43,562.547 262.87,563.906 262.925,567.292C263.017,572.948 265.213,576.407 272.391,582.207C278.411,587.071 279.357,588.432 281.607,595.473C285.16,606.592 289.977,612.709 298.109,616.432C301.91,618.172 303.387,618.39 309.711,618.143L316.958,617.859L320.501,621.336L324.045,624.813L331.526,619.424C335.641,616.46 339.004,613.614 338.998,613.098C338.993,612.583 338.112,610.629 337.042,608.756C335.148,605.446 335.137,605.314 336.61,603.98C338.043,602.683 338.314,602.747 341.568,605.14L345.01,607.671L351.574,601.368C355.184,597.902 358.259,594.795 358.407,594.463C358.555,594.132 357.914,592.892 356.982,591.708C356.051,590.524 355.289,589.12 355.289,588.588C355.289,588.057 363.44,582.74 373.401,576.774C392.531,565.317 397.053,562.32 403.883,556.578L408.111,553.022L411.195,555.118C412.891,556.27 414.66,557.213 415.126,557.213C415.592,557.213 418.858,554.311 422.383,550.765L428.793,544.318L426.157,540.99L423.521,537.662L425.833,534.878C428.466,531.709 429.813,531.403 432.585,533.345C434.495,534.683 434.595,534.644 437.296,531.52C438.813,529.765 441.554,526.385 443.387,524.01L446.718,519.691L443.843,516.676C441.066,513.765 440.981,513.491 441.36,508.713C441.673,504.773 441.41,503.091 440.065,500.457C436.325,493.124 427.733,488.503 417.95,488.563C411.74,488.6 407.167,490.365 400.734,495.205C387.469,505.186 365.981,512.611 339.008,516.532C329.618,517.898 324.467,518.182 313.816,517.922L300.429,517.596L294.588,511.405C280.824,496.814 255.285,459.962 235.226,425.744C231.288,419.029 225.986,410.402 223.441,406.574C220.897,402.746 216.373,394.811 213.388,388.939C203.341,369.181 196.842,362.4 164.802,338.242C154.281,330.309 142.192,320.991 137.939,317.535C117.792,301.165 96.701,279.91 82.503,261.667C70.984,246.868 54.241,222.951 54.984,222.357C55.165,222.212 60.442,221.099 66.71,219.883C138.336,205.987 217.169,180.046 282.994,148.709L294.648,143.161L303.6,147.478C368.072,178.571 443.283,203.722 517.304,218.945C527.249,220.99 535.761,222.895 536.219,223.178C539.107,224.963 529.522,338.832 523.329,376.31C513.659,434.828 485.684,497.177 441.598,558.468C409.849,602.609 382.064,633.125 351.219,657.733C337.65,668.558 320.087,680.518 303.067,690.522L296.024,694.662L292.077,692.569ZM370.593,493.345C378.212,491.742 386.337,488.606 392.801,484.773C398.598,481.337 401.806,478.431 398.834,479.309C397.942,479.572 395.151,480.154 392.631,480.601C389.982,481.072 384.742,483.15 380.205,485.531C375.89,487.795 371.826,489.647 371.174,489.647C369.726,489.647 360.987,493.449 360.987,494.08C360.987,494.862 364.748,494.574 370.593,493.345ZM368.077,488.885C379.879,485.635 387.037,479.87 387.037,473.612C387.037,466.775 381.532,462.336 369.442,459.421L361.744,457.565L355.033,460.893C351.342,462.724 346.254,464.651 343.727,465.175C341.201,465.7 338.701,466.65 338.172,467.287C337.545,468.043 337.311,470.845 337.499,475.367C337.767,481.82 337.955,482.458 340.269,484.772C341.634,486.137 344.931,488.17 347.596,489.29C353.407,491.732 358.07,491.64 368.077,488.885ZM334.737,482.631C335.591,481.496 335.802,479.319 335.551,474.22L335.212,467.341L331.635,464.452C329.667,462.863 325.118,458.595 321.525,454.969C317.933,451.343 314.261,447.996 313.366,447.532C312.47,447.068 308.381,446.427 304.279,446.108C295.539,445.427 295.05,445.804 295.05,453.209C295.05,456.698 295.558,458.383 297.57,461.556C303.019,470.147 315.407,480.932 323.134,483.812C326.754,485.161 333.335,484.491 334.737,482.631ZM318.657,483.657C318.657,483.497 316.551,481.979 313.976,480.284C311.402,478.589 306.553,474.416 303.201,471.011C299.849,467.605 298.263,466.284 299.677,468.075C305.577,475.547 318.657,486.286 318.657,483.657ZM419.842,455.864C422.953,449.545 426.519,439.313 425.844,438.638C425.21,438.004 422.635,443.43 419.6,451.794C418.138,455.823 416.401,460.219 415.739,461.562C414.659,463.757 414.664,463.881 415.787,462.784C416.474,462.112 418.299,458.998 419.842,455.864L419.842,455.864ZM390.086,457.802C394.641,455.597 400.708,449.436 403.773,443.904C405.981,439.918 406.165,438.952 406.142,431.443C406.103,418.449 403.466,415.035 390.461,411.142C384.081,409.232 381.425,408.799 377.152,408.97C374.68,409.07 358.611,423.166 357.04,426.614C355.727,429.496 355.866,432.957 357.652,441.834C360.073,453.868 360.853,454.854 370.349,457.882C377.16,460.054 385.504,460.021 390.086,457.802L390.086,457.802ZM420.079,444.278C420.855,443.502 422.621,440.48 424.004,437.562C426.201,432.925 426.553,431.214 426.794,423.982C427.274,409.569 424.553,402.525 416.949,398.491C412.33,396.04 411.27,396.704 409.389,403.223C408.657,405.76 407.141,409.53 406.021,411.6C404.143,415.072 404.076,415.547 405.16,417.705C407.182,421.731 408.237,427.573 408.075,433.847C407.906,440.411 408.432,441.593 412.679,444.189C415.745,446.064 418.263,446.094 420.079,444.278L420.079,444.278ZM312.502,443.935C314.144,443.187 314.977,441.644 316.584,436.374C317.806,432.37 319.922,427.872 321.939,424.992L325.274,420.231L323.545,416.211C322.594,414 321.291,409.21 320.651,405.566C319.124,396.883 318.135,395.911 310.32,395.409C305.768,395.117 303.677,395.345 301.745,396.344C298.75,397.893 293.504,406.244 290.942,413.542C287.676,422.846 289.958,435.877 295.775,441.134C299.101,444.139 308.573,445.725 312.502,443.935ZM355.679,423.362C357.208,422.723 361.593,419.192 365.423,415.515C374.183,407.105 374.925,405.165 372.98,395.758C370.894,385.671 368.834,382.263 363.08,379.381C358.736,377.205 357.496,376.972 350.068,376.939C340.404,376.895 338.024,377.798 331.058,384.153C324.169,390.438 321.913,394.47 321.913,400.497C321.913,406.333 323.798,414.32 325.855,417.197C327.926,420.095 331.88,421.785 339.822,423.167C348.836,424.736 352.288,424.779 355.679,423.362L355.679,423.362ZM288.375,414.958C291.062,411.145 293.055,406.641 297.472,394.404C299.815,387.912 302.599,381.016 303.658,379.08C304.718,377.145 305.251,375.679 304.843,375.824C303.463,376.314 295.946,386.258 293.095,391.365C290.126,396.683 285.781,408.936 285.017,414.144C284.466,417.902 286.034,418.282 288.375,414.958ZM419.599,395.329C419.599,392.443 409.255,378.434 401.973,371.458C395.964,365.701 385.409,360.583 385.409,363.426C385.409,365.531 391.389,374.027 394.281,376.031C397.658,378.371 403.037,383.901 408.523,390.675C411.485,394.331 417.485,398.056 418.952,397.149C419.308,396.93 419.599,396.11 419.599,395.329ZM382.512,374.157C385.748,372.726 386.223,372.198 386.223,370.031C386.223,364.612 375.734,357.135 365.464,355.233C359.895,354.202 347.124,354.729 343.485,356.141C342.142,356.663 339.598,357.225 337.832,357.39C333.445,357.802 324.149,361.341 326.548,361.686C327.531,361.828 330.604,361.026 333.379,359.906C336.153,358.785 338.005,358.286 337.494,358.797C335.923,360.369 336.465,362.831 339.689,368.761L342.787,374.46L351.276,375.07C355.945,375.406 360.132,375.861 360.58,376.082C361.028,376.302 365.311,376.329 370.098,376.141C376.478,375.89 379.792,375.361 382.512,374.157ZM320.967,611.242L318.012,608.287L314.119,609.613C303.399,613.266 295.045,608.317 290.248,595.473C285.633,583.116 285.325,582.631 278.582,577.052C270.198,570.116 268.562,565.796 273.848,564.548C275.516,564.154 275.081,563.53 269.293,558.015C260.518,549.651 248.695,539.975 229.926,525.797C205.253,507.159 199.344,502.249 188.399,491.294C172.26,475.141 165.704,464.122 159.904,443.397C158.111,436.991 155.931,430.353 155.06,428.646C153.433,425.456 149.121,421.267 147.463,421.267C146.95,421.267 144.285,423.492 141.541,426.212L136.553,431.156L124.018,428.252C107.579,424.445 99.528,422.213 93.623,419.827C88.832,417.89 74.443,410.862 74.443,410.458C74.443,410.342 73.53,406.225 72.413,401.308C70.521,392.975 61.431,325.741 58.603,299.16C57.278,286.708 55.372,262.214 54.453,245.84L53.904,236.072L59.168,243.474C75.587,266.564 85.183,278.24 100.811,294.148C118.055,311.698 130.311,322.152 157.997,342.925C191.695,368.208 197.589,374.355 207.353,394.404C209.425,398.657 212.836,404.701 214.933,407.835C217.031,410.97 222.418,419.761 226.906,427.373C243.616,455.716 262.5,484.145 277.455,503.475C287.82,516.871 305.751,534.447 303.759,529.258C302.632,526.32 304.378,525.911 318.412,525.824C334.061,525.728 344.368,524.363 361.801,520.079C381.646,515.202 394.364,509.651 407.418,500.167C415.082,494.599 423.666,494.848 430.288,500.83C432.928,503.215 433.437,504.193 433.437,506.877C433.437,508.638 432.905,511.108 432.255,512.366C431.132,514.537 431.194,514.768 433.476,516.955C436.334,519.693 436.411,520.317 434.177,522.695L432.474,524.508L429.591,522.807L426.708,521.106L424.985,523.481C424.037,524.786 421.43,528.009 419.191,530.642C413.134,537.765 413.33,537.181 415.886,540.533L418.178,543.537L414.063,547.651L411.259,545.513C409.717,544.336 408.202,543.374 407.893,543.374C407.584,543.374 404.505,545.789 401.051,548.741C393.763,554.969 385.985,560.212 370.504,569.332C358.781,576.239 349.91,581.993 346.023,585.214L343.677,587.159L345.82,589.968C348.477,593.452 348.486,594.129 345.9,595.823C343.907,597.129 343.737,597.092 340.877,594.734L337.917,592.294L332.154,597.299C328.984,600.051 326.067,602.574 325.671,602.904C325.275,603.235 325.964,605.233 327.201,607.344L329.45,611.181L327.513,612.671C324.845,614.722 324.336,614.611 320.967,611.242L320.967,611.242ZM317.549,602.076C320.267,600.628 326.665,595.8 331.767,591.347C341.155,583.155 359.638,570.314 379.71,558.038C394.839,548.786 399.906,544.878 409.995,534.679C421.034,523.521 423.228,520.735 426.732,513.427C429.766,507.1 429.906,504.768 426.966,509.525C424.061,514.226 418.588,518.411 408.223,523.859C397.619,529.433 394.483,532.233 381.166,548.008C375.9,554.247 372.686,557.009 361.222,565.151C353.705,570.49 345.358,576.283 342.671,578.026C339.985,579.769 335.223,583.255 332.089,585.774C321.327,594.424 312.899,598.754 306.912,598.711C303.895,598.689 297.81,596.04 295.152,593.591L293.219,591.81L293.82,593.845C294.151,594.964 295.089,596.985 295.906,598.336C300.793,606.421 307.29,607.544 317.549,602.076L317.549,602.076Z" style="fill:rgb(160,142,100);fill-rule:nonzero;"/>
                        <path id="path854" d="M282.216,720.039C224.47,684.933 184.213,646.045 134.148,577.005C84.866,509.045 52.838,439.048 41.487,374.495C35.435,340.078 28.09,263.242 25.914,211.574L25.362,198.473L29.031,197.97C43.555,195.979 96.599,183.412 125.728,175.061C179.803,159.558 237.131,138.075 280.469,117.074L296.416,109.346L307.74,115.013C348.457,135.389 411.682,159.255 466.813,175.061C495.823,183.378 548.98,195.978 563.391,197.953L566.941,198.44L566.938,203.824C566.927,217.603 562.562,277.854 559.145,311.371C553.34,368.325 548.421,394.788 537.634,427.104C518.086,485.671 487.372,540.487 439.734,601.833C397.668,656.002 360.32,690.005 309.134,720.734C302.329,724.82 296.467,728.146 296.109,728.126C295.751,728.106 289.499,724.467 282.217,720.039L282.216,720.039ZM314.993,698.063C339.302,683.1 365.379,662.579 385.88,642.281C403.879,624.458 418.962,606.604 441.585,576.343C490.614,510.76 521.693,445.438 533.96,382.193C539.199,355.181 545.432,293.625 548.665,236.984C549.684,219.129 549.777,213.332 549.055,212.886C548.532,212.562 545.473,211.835 542.259,211.27C531.201,209.325 503.427,203.144 487.014,198.975C424.48,183.089 361.483,160.618 309.277,135.577L295.867,129.144L281.823,135.914C239.097,156.51 182.575,177.54 131.019,192.024C106.09,199.027 66.952,208.307 50.022,211.229C41.059,212.776 41.706,212.041 42.235,220.067C42.491,223.945 43.078,233.894 43.539,242.177C46.536,295.957 53.124,358.589 58.653,385.856C67.52,429.587 86.282,476.07 113.361,521.395C134.7,557.111 166.206,599.556 193.885,629.877C218.761,657.127 254.794,685.722 288.793,705.195L295.968,709.305L302.632,705.437C306.297,703.31 311.859,699.992 314.993,698.063ZM284.835,688.217C248.448,666.599 214.799,638.633 188.918,608.497C151.385,564.792 116.931,512.942 98.042,471.738C90.347,454.952 77.996,423.141 78.845,422.293C78.973,422.165 81.852,423.324 85.243,424.87C93.154,428.475 104.186,431.821 120.03,435.422C138.283,439.57 139.124,439.555 144.079,434.987C146.093,433.131 147.881,431.757 148.053,431.934C148.225,432.112 149.501,436.286 150.889,441.211C158.377,467.78 165.029,479.47 182.64,497.009C192.61,506.938 201.672,514.423 225.449,532.367C242.208,545.014 254.189,554.652 260.235,560.35C262.979,562.936 263.225,563.509 262.784,566.27C262.094,570.585 264.89,575.957 270.054,580.239C278.12,586.928 279.26,588.361 281.194,594.252C285.296,606.743 289.705,612.671 297.496,616.168C302.538,618.43 310.492,619.279 314.365,617.968C315.832,617.471 316.947,618.072 320.194,621.109L324.208,624.864L331.608,619.453C335.678,616.477 339.008,613.72 339.008,613.327C339.008,612.933 338.201,610.95 337.214,608.918C335.534,605.461 335.507,605.138 336.785,603.859C338.064,602.58 338.363,602.663 341.455,605.148L344.759,607.803L351.449,601.53C355.128,598.08 358.254,594.958 358.396,594.592C358.538,594.226 357.805,592.776 356.768,591.369L354.882,588.813L357.197,586.964C358.47,585.947 367.376,580.413 376.988,574.668C386.599,568.922 397.575,561.724 401.377,558.673L408.291,553.126L415.262,557.922L422.011,551.137L428.761,544.352L426.622,541.548C423.885,537.96 423.932,536.88 426.947,533.992L429.411,531.631L432.243,533.156C433.801,533.995 435.189,534.531 435.327,534.347C435.466,534.163 437.779,531.265 440.467,527.907C447.208,519.487 447.038,520.031 443.928,516.822C441.35,514.163 441.222,513.751 441.444,508.818C441.72,502.672 440.029,498.641 435.509,494.673C431.479,491.134 428.881,489.926 423.021,488.863C414.369,487.294 410.408,488.494 399.247,496.062C388.672,503.233 382.316,506.073 367.093,510.432C347.906,515.925 337.021,517.511 317.263,517.69L300.808,517.84L296.438,513.309C281.211,497.52 254.832,459.395 231.91,420.046C229.301,415.569 225.04,408.66 222.44,404.693C219.841,400.725 215.466,392.938 212.719,387.389C209.263,380.405 206.074,375.357 202.362,370.995C192.651,359.581 189.01,356.419 162.767,336.612C135.269,315.856 123.649,306.025 108.075,290.338C92.149,274.297 76.871,255.33 60.757,231.595C55.807,224.304 55.16,222.964 56.355,222.479C57.125,222.166 64.349,220.591 72.408,218.978C141.079,205.236 219.84,179.19 279.504,150.492C287.296,146.744 294.108,143.678 294.643,143.678C295.177,143.678 301.423,146.463 308.524,149.867C370.105,179.393 445.887,204.524 517.168,219.057C527.306,221.124 535.895,223.089 536.255,223.423C537.386,224.473 533.99,277.43 530.249,317.069C524.935,373.391 518.974,404.33 507.275,436.327C487.837,489.488 459.723,537.114 414.289,593.845C386.773,628.203 359.933,653.109 325.542,676.197C313.663,684.171 297.22,693.973 295.72,693.973C295.061,693.973 290.163,691.382 284.835,688.217ZM370.696,493.323C373.856,492.658 379.337,490.998 382.874,489.634C392.022,486.106 403.923,478.211 398.298,479.401C397.253,479.622 394.41,480.197 391.981,480.677C389.552,481.158 384.904,483.019 381.653,484.814C378.403,486.608 373.797,488.653 371.418,489.358C367.026,490.661 360.987,493.429 360.987,494.141C360.987,494.868 364.927,494.536 370.696,493.323ZM369.535,488.543C380.989,484.858 387.027,479.677 387.034,473.529C387.042,466.797 381.476,462.322 369.506,459.436L361.872,457.596L354.714,460.982C350.777,462.844 345.656,464.769 343.335,465.26C341.014,465.751 338.686,466.668 338.163,467.298C337.546,468.041 337.313,470.881 337.499,475.367C337.767,481.82 337.955,482.458 340.269,484.772C341.634,486.137 344.931,488.173 347.596,489.296C353.631,491.84 359.963,491.623 369.535,488.543ZM334.737,482.631C335.591,481.496 335.802,479.319 335.551,474.22L335.212,467.341L331.635,464.452C329.667,462.863 325.118,458.588 321.526,454.951C317.933,451.315 314.258,447.961 313.358,447.498C312.459,447.035 308.375,446.394 304.282,446.073C297.295,445.527 296.786,445.594 295.945,447.165C295.453,448.085 295.05,450.805 295.05,453.209C295.05,458.501 297.534,462.846 305.1,470.789C310.094,476.031 319.325,482.695 323.419,484.014C326.977,485.16 333.424,484.372 334.737,482.631ZM318.657,483.657C318.657,483.497 316.551,481.979 313.976,480.285C311.402,478.59 306.571,474.417 303.241,471.011C299.911,467.605 297.96,465.918 298.906,467.261C303.515,473.808 318.657,486.377 318.657,483.657ZM418.657,458.493C421.242,453.937 426.134,440.75 426.075,438.501C426.02,436.431 423.018,442.59 419.443,452.108C417.679,456.805 415.856,461.356 415.394,462.221C413.452,465.85 416.384,462.499 418.657,458.493ZM390.495,457.769C394.673,455.675 401.671,448.386 404.133,443.566C405.906,440.093 406.164,438.541 406.148,431.443C406.125,421.821 404.754,418.171 399.97,415.005C396.134,412.466 384.664,409.028 379.561,408.887C375.098,408.763 373.953,409.532 363.226,419.858C356.164,426.656 356.103,426.748 356.114,430.707C356.128,435.82 358.78,448.719 360.502,452.051C362.06,455.062 364.564,456.499 371.199,458.188C380.396,460.529 385.196,460.425 390.495,457.769ZM423.098,439.176C426.979,431.514 428.042,424.945 426.854,415.976C425.717,407.396 423.806,403.243 419.587,400.187C412.94,395.372 411.631,395.846 408.998,404.025C408.036,407.016 406.509,410.783 405.607,412.397C404.112,415.069 404.073,415.54 405.161,417.688C407.139,421.593 408.244,427.849 408.042,433.997C407.906,438.132 408.195,440.225 409.044,441.252C411.133,443.781 415.042,445.732 417.563,445.503C419.715,445.308 420.374,444.554 423.098,439.176ZM312.502,443.935C314.144,443.187 314.977,441.644 316.584,436.374C317.8,432.39 319.921,427.872 321.913,425.03L325.222,420.306L323.22,415.292C322.119,412.534 320.957,407.948 320.637,405.101C319.749,397.21 318.196,395.842 309.625,395.401C303.532,395.087 302.539,395.242 300.556,396.811C297.873,398.935 293.23,407.028 290.917,413.616C287.693,422.794 289.98,435.897 295.71,441.074C299.202,444.23 308.412,445.799 312.502,443.935ZM358.269,421.849C364.342,417.528 372.365,408.902 373.341,405.644C375.21,399.406 371.005,384.522 366.376,380.991C360.156,376.247 345.382,375.104 338.194,378.811C333.713,381.122 327.403,387.055 324.256,391.917C322.268,394.988 321.913,396.363 321.913,400.99C321.913,408.317 324.463,416.458 327.578,419.079C329.687,420.853 334.257,422.235 343.892,424.01C349.031,424.957 355.206,424.03 358.269,421.849ZM288.375,414.958C291.062,411.145 293.055,406.641 297.472,394.404C299.815,387.912 302.61,380.997 303.682,379.038C306.337,374.187 306.119,373.877 302.751,377.716C298.77,382.253 294.024,389.178 291.594,393.997C289.306,398.534 285.749,409.457 285.035,414.144C284.462,417.904 286.031,418.286 288.375,414.958ZM419.599,395.693C419.599,390.587 403.793,371.671 394.76,365.966C389.861,362.872 385.409,361.663 385.409,363.426C385.409,365.636 391.531,374.266 394.594,376.374C398.076,378.771 402.777,383.599 408.523,390.681C411.176,393.95 416.622,397.573 418.988,397.642C419.324,397.651 419.599,396.775 419.599,395.693ZM382.512,374.157C385.748,372.726 386.223,372.198 386.223,370.031C386.223,364.535 375.899,357.177 365.464,355.235C359.353,354.097 345.866,354.823 341.835,356.507C340.185,357.197 338.544,357.581 338.188,357.361C337.408,356.879 327.706,359.843 325.983,361.09C323.851,362.632 331.491,361.158 335.057,359.339L338.283,357.693L337.07,359.564C335.94,361.306 336.091,361.883 339.264,367.947L342.671,374.46L350.405,375.047C354.658,375.37 358.871,375.803 359.766,376.01C360.662,376.216 365.311,376.253 370.098,376.092C376.568,375.874 379.754,375.378 382.512,374.157L382.512,374.157ZM321.004,611.279L318.087,608.362L313.747,609.651C307.95,611.373 305.974,611.273 301.122,609.013C295.713,606.495 293.266,603.418 290.2,595.284C285.602,583.085 285.3,582.61 278.582,577.052C270.2,570.118 268.562,565.796 273.844,564.549C275.501,564.158 275.009,563.468 268.882,557.604C260.248,549.339 249.141,540.273 229.112,525.14C197.057,500.921 182.349,487.379 173.407,473.851C166.802,463.858 164.336,458.323 160.235,444.286C158.172,437.222 155.807,430.115 154.98,428.493C153.372,425.335 149.074,421.267 147.347,421.267C146.769,421.267 144.113,423.499 141.444,426.226L136.592,431.185L124.851,428.341C118.394,426.777 111.828,425.252 110.261,424.952C104.188,423.789 93.985,420.11 84.852,415.792C75.391,411.318 75.307,411.253 74.083,407.524C73.405,405.457 72.272,401.018 71.565,397.66C70.019,390.315 59.608,309.795 57.829,291.427C56.665,279.406 54.092,242.785 54.092,238.236C54.092,236.715 55.266,237.926 59.262,243.572C76.619,268.095 88.502,282.231 106.686,299.99C122.262,315.202 129.806,321.54 155.848,341.296C180.166,359.745 187.733,366.052 193.456,372.643C199.598,379.717 200.537,381.184 206.902,393.659C209.999,399.729 214.369,407.418 216.613,410.743C218.857,414.069 224.487,423.201 229.124,431.036C245.417,458.565 265.497,488.528 279.316,505.928C285.659,513.915 301.723,530.349 303.187,530.349C303.732,530.349 303.99,529.858 303.759,529.258C302.626,526.304 304.373,525.895 318.417,525.832C334.02,525.761 344.172,524.416 361.683,520.099C382.206,515.04 393.2,510.408 404.946,501.87C407.856,499.755 411.482,497.605 413.004,497.092C418.958,495.086 425.476,496.482 430.239,500.786C432.985,503.267 433.437,504.154 433.437,507.063C433.437,508.926 432.846,511.295 432.122,512.327C430.867,514.12 430.921,514.322 433.344,516.821C436.323,519.895 436.437,520.638 434.234,522.632C432.655,524.06 432.464,524.063 429.591,522.692L426.594,521.263L424.928,523.567C424.011,524.833 421.155,528.323 418.581,531.321C416.007,534.32 413.9,537.033 413.9,537.351C413.9,537.669 414.863,539.191 416.039,540.733L418.178,543.537L414.063,547.651L411.259,545.513C409.717,544.336 408.18,543.374 407.843,543.374C407.506,543.374 404.977,545.33 402.222,547.72C394.392,554.513 389.481,557.858 371.57,568.597C356.516,577.621 343.892,586.041 343.892,587.057C343.892,587.268 344.808,588.642 345.927,590.109C348.432,593.393 348.428,593.876 345.888,595.725C343.893,597.177 343.824,597.163 340.891,594.746L337.917,592.294L332.154,597.299C328.984,600.051 326.066,602.574 325.671,602.904C325.275,603.235 325.963,605.233 327.2,607.343L329.45,611.181L327.513,612.671C324.848,614.72 324.335,614.61 321.004,611.279L321.004,611.279ZM316.257,602.757C321.224,600.273 325.979,596.698 334.574,588.987C340.658,583.529 362.188,568.792 379.266,558.396C393.489,549.739 400.591,544.3 410.152,534.74C419.629,525.266 423.44,520.416 426.917,513.403C430.113,506.957 429.766,505.437 426.224,510.369C422.735,515.228 417.093,519.372 406.906,524.558C397.994,529.095 393.945,532.78 381.189,547.968C375.921,554.239 372.783,556.942 361.246,565.143C353.716,570.496 344.991,576.532 341.857,578.555C338.723,580.578 333.411,584.498 330.053,587.265C317.104,597.937 306.987,600.772 298.855,596.006C296.707,594.748 294.75,593.197 294.505,592.56C294.261,591.924 293.747,591.403 293.363,591.403C292.094,591.403 295.917,599.087 298.539,601.806C303.116,606.552 308.133,606.821 316.257,602.757Z" style="fill:rgb(157,96,93);fill-rule:nonzero;"/>
                        <path id="path852" d="M282.216,720.039C224.47,684.933 184.213,646.045 134.148,577.005C84.866,509.045 52.838,439.048 41.487,374.495C35.435,340.078 28.09,263.242 25.914,211.574L25.362,198.473L29.031,197.97C43.555,195.979 96.599,183.412 125.728,175.061C179.803,159.558 237.131,138.075 280.469,117.074L296.416,109.346L307.74,115.013C348.457,135.389 411.682,159.255 466.813,175.061C495.823,183.378 548.98,195.978 563.391,197.953L566.941,198.44L566.938,203.824C566.927,217.603 562.562,277.854 559.145,311.371C553.34,368.325 548.421,394.788 537.634,427.104C518.086,485.671 487.372,540.487 439.734,601.833C397.668,656.002 360.32,690.005 309.134,720.734C302.329,724.82 296.467,728.146 296.109,728.126C295.751,728.106 289.499,724.467 282.217,720.039L282.216,720.039ZM305.536,703.994C349.468,678.185 385.86,646.704 418.752,606.056C470.078,542.626 502.496,486.749 522.184,427.78C532.69,396.311 537.348,370.916 542.864,315.034C546.064,282.615 549.866,228.976 549.836,216.664L549.824,212.465L531.959,208.955C459.131,194.65 374.358,166.65 310.362,135.762L295.961,128.811L285.533,133.896C220.589,165.562 135.682,193.845 60.604,208.822C50.978,210.742 42.785,212.592 42.397,212.932C41.026,214.133 45.432,280.063 49.628,321.14C53.5,359.041 56.419,378.314 61.431,399.066C75.004,455.272 105.155,515.913 148.559,574.308C183.32,621.074 208.362,647.893 240.916,673.218C258.832,687.156 294.167,709.868 296.581,708.999C297.2,708.776 301.229,706.524 305.536,703.994ZM291.38,691.826C278.445,684.993 254.249,668.677 238.76,656.343C212.68,635.576 193.604,615.654 166.831,581.227C130.974,535.119 106.137,493.467 88.921,450.573C84.453,439.442 78.475,422.663 78.845,422.293C78.973,422.165 81.852,423.324 85.243,424.87C93.154,428.475 104.186,431.821 120.03,435.422C138.283,439.57 139.124,439.555 144.079,434.987C146.093,433.131 147.881,431.757 148.053,431.934C148.225,432.112 149.501,436.286 150.889,441.211C158.377,467.78 165.029,479.47 182.64,497.009C192.61,506.938 201.672,514.423 225.449,532.367C242.208,545.014 254.189,554.652 260.235,560.35C262.979,562.936 263.225,563.509 262.784,566.27C262.094,570.585 264.89,575.957 270.054,580.239C278.12,586.928 279.26,588.361 281.194,594.252C285.296,606.743 289.705,612.671 297.496,616.168C302.538,618.43 310.492,619.279 314.365,617.968C315.832,617.471 316.947,618.072 320.194,621.109L324.208,624.864L331.608,619.453C335.678,616.477 339.008,613.72 339.008,613.327C339.008,612.933 338.201,610.95 337.214,608.918C335.534,605.461 335.507,605.138 336.785,603.859C338.064,602.58 338.363,602.663 341.455,605.148L344.759,607.803L351.449,601.53C355.128,598.08 358.254,594.958 358.396,594.592C358.538,594.226 357.805,592.776 356.768,591.369L354.882,588.813L357.197,586.964C358.47,585.947 367.376,580.413 376.988,574.668C386.599,568.922 397.575,561.724 401.377,558.673L408.291,553.126L415.262,557.922L422.011,551.137L428.761,544.352L426.622,541.548C423.885,537.96 423.932,536.88 426.947,533.992L429.411,531.631L432.243,533.156C433.801,533.995 435.189,534.531 435.327,534.347C435.466,534.163 437.779,531.265 440.467,527.907C447.208,519.487 447.038,520.031 443.928,516.822C441.35,514.163 441.222,513.751 441.444,508.818C441.72,502.672 440.029,498.641 435.509,494.673C431.479,491.134 428.881,489.926 423.021,488.863C414.369,487.294 410.408,488.494 399.247,496.062C388.672,503.233 382.316,506.073 367.093,510.432C347.906,515.925 337.021,517.511 317.263,517.69L300.808,517.84L296.438,513.309C281.211,497.52 254.832,459.395 231.91,420.046C229.301,415.569 225.04,408.66 222.44,404.693C219.841,400.725 215.466,392.938 212.719,387.389C209.263,380.405 206.074,375.357 202.362,370.995C192.651,359.581 189.01,356.419 162.767,336.612C135.269,315.856 123.649,306.025 108.075,290.338C92.149,274.297 76.871,255.33 60.757,231.595C55.807,224.304 55.16,222.964 56.355,222.479C57.125,222.166 64.349,220.591 72.408,218.978C141.079,205.236 219.84,179.19 279.504,150.492C287.296,146.744 294.097,143.678 294.617,143.678C295.136,143.678 300.302,146.008 306.095,148.857C365.429,178.032 446.548,204.924 519.797,219.701C535.901,222.95 536.821,223.218 536.821,224.657C536.821,228.114 534.14,271.187 533.121,284.101C526.882,363.167 520.663,399.783 507.266,436.327C487.665,489.791 459.759,537.069 414.289,593.845C386.773,628.203 359.933,653.109 325.542,676.197C315.352,683.037 297.289,693.973 296.18,693.973C295.775,693.973 293.615,693.006 291.38,691.826ZM370.696,493.323C373.856,492.658 379.337,490.998 382.874,489.634C392.022,486.106 403.923,478.211 398.298,479.401C397.253,479.622 394.41,480.197 391.981,480.677C389.552,481.158 384.904,483.019 381.653,484.814C378.403,486.608 373.797,488.653 371.418,489.358C367.026,490.661 360.987,493.429 360.987,494.141C360.987,494.868 364.927,494.536 370.696,493.323ZM369.535,488.543C380.989,484.858 387.027,479.677 387.034,473.529C387.042,466.797 381.476,462.322 369.506,459.436L361.872,457.596L354.714,460.982C350.777,462.844 345.656,464.769 343.335,465.26C341.014,465.751 338.686,466.668 338.163,467.298C337.546,468.041 337.313,470.881 337.499,475.367C337.767,481.82 337.955,482.458 340.269,484.772C341.634,486.137 344.931,488.173 347.596,489.296C353.631,491.84 359.963,491.623 369.535,488.543ZM334.737,482.631C335.591,481.496 335.802,479.319 335.551,474.22L335.212,467.341L331.635,464.452C329.667,462.863 325.118,458.588 321.526,454.951C317.933,451.315 314.258,447.961 313.358,447.498C312.459,447.035 308.375,446.394 304.282,446.073C297.295,445.527 296.786,445.594 295.945,447.165C295.453,448.085 295.05,450.805 295.05,453.209C295.05,458.501 297.534,462.846 305.1,470.789C310.094,476.031 319.325,482.695 323.419,484.014C326.977,485.16 333.424,484.372 334.737,482.631ZM318.657,483.657C318.657,483.497 316.551,481.979 313.976,480.285C311.402,478.59 306.571,474.417 303.241,471.011C299.911,467.605 297.96,465.918 298.906,467.261C303.515,473.808 318.657,486.377 318.657,483.657ZM418.657,458.493C421.242,453.937 426.134,440.75 426.075,438.501C426.02,436.431 423.018,442.59 419.443,452.108C417.679,456.805 415.856,461.356 415.394,462.221C413.452,465.85 416.384,462.499 418.657,458.493ZM390.495,457.769C394.673,455.675 401.671,448.386 404.133,443.566C405.906,440.093 406.164,438.541 406.148,431.443C406.125,421.821 404.754,418.171 399.97,415.005C396.134,412.466 384.664,409.028 379.561,408.887C375.098,408.763 373.953,409.532 363.226,419.858C356.164,426.656 356.103,426.748 356.114,430.707C356.128,435.82 358.78,448.719 360.502,452.051C362.06,455.062 364.564,456.499 371.199,458.188C380.396,460.529 385.196,460.425 390.495,457.769ZM423.098,439.176C426.979,431.514 428.042,424.945 426.854,415.976C425.717,407.396 423.806,403.243 419.587,400.187C412.94,395.372 411.631,395.846 408.998,404.025C408.036,407.016 406.509,410.783 405.607,412.397C404.112,415.069 404.073,415.54 405.161,417.688C407.139,421.593 408.244,427.849 408.042,433.997C407.906,438.132 408.195,440.225 409.044,441.252C411.133,443.781 415.042,445.732 417.563,445.503C419.715,445.308 420.374,444.554 423.098,439.176ZM312.502,443.935C314.144,443.187 314.977,441.644 316.584,436.374C317.8,432.39 319.921,427.872 321.913,425.03L325.222,420.306L323.22,415.292C322.119,412.534 320.957,407.948 320.637,405.101C319.749,397.21 318.196,395.842 309.625,395.401C303.532,395.087 302.539,395.242 300.556,396.811C297.873,398.935 293.23,407.028 290.917,413.616C287.693,422.794 289.98,435.897 295.71,441.074C299.202,444.23 308.412,445.799 312.502,443.935ZM358.269,421.849C364.342,417.528 372.365,408.902 373.341,405.644C375.21,399.406 371.005,384.522 366.376,380.991C360.156,376.247 345.382,375.104 338.194,378.811C333.713,381.122 327.403,387.055 324.256,391.917C322.268,394.988 321.913,396.363 321.913,400.99C321.913,408.317 324.463,416.458 327.578,419.079C329.687,420.853 334.257,422.235 343.892,424.01C349.031,424.957 355.206,424.03 358.269,421.849ZM288.375,414.958C291.062,411.145 293.055,406.641 297.472,394.404C299.815,387.912 302.61,380.997 303.682,379.038C306.337,374.187 306.119,373.877 302.751,377.716C298.77,382.253 294.024,389.178 291.594,393.997C289.306,398.534 285.749,409.457 285.035,414.144C284.462,417.904 286.031,418.286 288.375,414.958ZM419.599,395.693C419.599,390.587 403.793,371.671 394.76,365.966C389.861,362.872 385.409,361.663 385.409,363.426C385.409,365.636 391.531,374.266 394.594,376.374C398.076,378.771 402.777,383.599 408.523,390.681C411.176,393.95 416.622,397.573 418.988,397.642C419.324,397.651 419.599,396.775 419.599,395.693ZM382.512,374.157C385.748,372.726 386.223,372.198 386.223,370.031C386.223,364.535 375.899,357.177 365.464,355.235C359.353,354.097 345.866,354.823 341.835,356.507C340.185,357.197 338.544,357.581 338.188,357.361C337.408,356.879 327.706,359.843 325.983,361.09C323.851,362.632 331.491,361.158 335.057,359.339L338.283,357.693L337.07,359.564C335.94,361.306 336.091,361.883 339.264,367.947L342.671,374.46L350.405,375.047C354.658,375.37 358.871,375.803 359.766,376.01C360.662,376.216 365.311,376.253 370.098,376.092C376.568,375.874 379.754,375.378 382.512,374.157L382.512,374.157ZM321.004,611.279L318.087,608.362L313.747,609.651C307.95,611.373 305.974,611.273 301.122,609.013C295.713,606.495 293.266,603.418 290.2,595.284C285.602,583.085 285.3,582.61 278.582,577.052C270.2,570.118 268.562,565.796 273.844,564.549C275.501,564.158 275.009,563.468 268.882,557.604C260.248,549.339 249.141,540.273 229.112,525.14C197.057,500.921 182.349,487.379 173.407,473.851C166.802,463.858 164.336,458.323 160.235,444.286C158.172,437.222 155.807,430.115 154.98,428.493C153.372,425.335 149.074,421.267 147.347,421.267C146.769,421.267 144.113,423.499 141.444,426.226L136.592,431.185L124.851,428.341C118.394,426.777 111.828,425.252 110.261,424.952C104.188,423.789 93.985,420.11 84.852,415.792C75.391,411.318 75.307,411.253 74.083,407.524C73.405,405.457 72.272,401.018 71.565,397.66C70.019,390.315 59.608,309.795 57.829,291.427C56.665,279.406 54.092,242.785 54.092,238.236C54.092,236.715 55.266,237.926 59.262,243.572C76.619,268.095 88.502,282.231 106.686,299.99C122.262,315.202 129.806,321.54 155.848,341.296C180.166,359.745 187.733,366.052 193.456,372.643C199.598,379.717 200.537,381.184 206.902,393.659C209.999,399.729 214.369,407.418 216.613,410.743C218.857,414.069 224.487,423.201 229.124,431.036C245.417,458.565 265.497,488.528 279.316,505.928C285.659,513.915 301.723,530.349 303.187,530.349C303.732,530.349 303.99,529.858 303.759,529.258C302.626,526.304 304.373,525.895 318.417,525.832C334.02,525.761 344.172,524.416 361.683,520.099C382.206,515.04 393.2,510.408 404.946,501.87C407.856,499.755 411.482,497.605 413.004,497.092C418.958,495.086 425.476,496.482 430.239,500.786C432.985,503.267 433.437,504.154 433.437,507.063C433.437,508.926 432.846,511.295 432.122,512.327C430.867,514.12 430.921,514.322 433.344,516.821C436.323,519.895 436.437,520.638 434.234,522.632C432.655,524.06 432.464,524.063 429.591,522.692L426.594,521.263L424.928,523.567C424.011,524.833 421.155,528.323 418.581,531.321C416.007,534.32 413.9,537.033 413.9,537.351C413.9,537.669 414.863,539.191 416.039,540.733L418.178,543.537L414.063,547.651L411.259,545.513C409.717,544.336 408.18,543.374 407.843,543.374C407.506,543.374 404.977,545.33 402.222,547.72C394.392,554.513 389.481,557.858 371.57,568.597C356.516,577.621 343.892,586.041 343.892,587.057C343.892,587.268 344.808,588.642 345.927,590.109C348.432,593.393 348.428,593.876 345.888,595.725C343.893,597.177 343.824,597.163 340.891,594.746L337.917,592.294L332.154,597.299C328.984,600.051 326.066,602.574 325.671,602.904C325.275,603.235 325.963,605.233 327.2,607.343L329.45,611.181L327.513,612.671C324.848,614.72 324.335,614.61 321.004,611.279L321.004,611.279ZM316.257,602.757C321.224,600.273 325.979,596.698 334.574,588.987C340.658,583.529 362.188,568.792 379.266,558.396C393.489,549.739 400.591,544.3 410.152,534.74C419.629,525.266 423.44,520.416 426.917,513.403C430.113,506.957 429.766,505.437 426.224,510.369C422.735,515.228 417.093,519.372 406.906,524.558C397.994,529.095 393.945,532.78 381.189,547.968C375.921,554.239 372.783,556.942 361.246,565.143C353.716,570.496 344.991,576.532 341.857,578.555C338.723,580.578 333.411,584.498 330.053,587.265C317.104,597.937 306.987,600.772 298.855,596.006C296.707,594.748 294.75,593.197 294.505,592.56C294.261,591.924 293.747,591.403 293.363,591.403C292.094,591.403 295.917,599.087 298.539,601.806C303.116,606.552 308.133,606.821 316.257,602.757Z" style="fill:rgb(94,95,93);fill-rule:nonzero;"/>
                        <path id="path850" d="M282.216,720.039C224.47,684.933 184.213,646.045 134.148,577.005C84.866,509.045 52.838,439.048 41.487,374.495C35.435,340.078 28.09,263.242 25.914,211.574L25.362,198.473L29.031,197.97C43.555,195.979 96.599,183.412 125.728,175.061C179.803,159.558 237.131,138.075 280.469,117.074L296.416,109.346L307.74,115.013C348.457,135.389 411.682,159.255 466.813,175.061C495.823,183.378 548.98,195.978 563.391,197.953L566.941,198.44L566.938,203.824C566.927,217.603 562.562,277.854 559.145,311.371C553.34,368.325 548.421,394.788 537.634,427.104C518.086,485.671 487.372,540.487 439.734,601.833C397.668,656.002 360.32,690.005 309.134,720.734C302.329,724.82 296.467,728.146 296.109,728.126C295.751,728.106 289.499,724.467 282.217,720.039L282.216,720.039ZM303.631,705.27C313.761,699.478 334.99,685.448 344.938,677.969C379.913,651.676 405.264,625.214 440.749,577.961C492.225,509.416 524.481,440.573 535.526,375.681C541.028,343.361 548.83,258.38 549.946,218.618L550.116,212.56L531.064,208.669C455.016,193.137 374.231,166.393 309.49,135.316L295.846,128.767L283.034,134.955C215.987,167.338 129.08,195.722 51.741,210.495L41.657,212.422L42.196,224.654C44.691,281.276 52.341,357.174 58.627,387.69C66.913,427.906 85.554,474.681 109.805,516.104C129.399,549.572 161.532,593.87 187.906,623.772C208.895,647.569 237.149,672.137 264.93,690.749C273.075,696.206 294.95,709.439 295.826,709.439C296.108,709.439 299.62,707.563 303.631,705.27ZM288.096,689.814C277.858,683.975 254.661,668.496 244.986,661.046C223.704,644.658 200.053,621.901 183.334,601.722C134.572,542.871 102.133,488.507 82.091,432.053C80.144,426.569 78.736,422.081 78.963,422.081C79.189,422.081 81.571,423.191 84.257,424.546C93.016,428.968 110.314,433.903 133.046,438.466C137.699,439.4 140.669,438.392 144.616,434.538L147.645,431.58L148.389,433.547C148.797,434.628 149.715,437.528 150.427,439.99C155.686,458.17 157.745,463.763 161.72,470.664C172.694,489.721 186.353,503.026 224.635,531.95C241.484,544.68 249.456,551.043 257.515,558.194L262.75,562.839L262.822,567.684C262.909,573.468 264.813,576.281 273.246,583.084C278.204,587.084 278.724,587.822 280.712,593.667C283.677,602.39 286.426,607.641 289.899,611.217C295.562,617.046 306.176,620.355 313.09,618.446C315.887,617.674 316.225,617.793 318.785,620.455C323.564,625.424 323.626,625.421 331.444,619.731C335.32,616.911 338.836,614.37 339.258,614.085C339.691,613.793 339.018,611.718 337.712,609.319C335.499,605.252 335.464,605.023 336.896,603.976C338.208,603.017 338.777,603.191 341.514,605.391L344.636,607.9L351.591,601.586C355.416,598.114 358.545,594.917 358.545,594.481C358.545,594.046 357.755,592.579 356.788,591.222L355.031,588.755L356.992,587.246C358.07,586.415 366.095,581.461 374.826,576.236C391.333,566.356 395.606,563.519 403.626,557.109L408.411,553.284L411.722,555.682L415.033,558.081L421.793,551.356C425.511,547.657 428.553,544.229 428.553,543.737C428.553,543.246 427.637,541.983 426.518,540.932C423.942,538.512 423.967,537.825 426.756,534.484L429.029,531.761L431.695,533.14C433.162,533.898 434.665,534.405 435.036,534.266C436.266,533.804 446.462,520.681 446.462,519.56C446.462,518.954 445.206,517.241 443.672,515.754C441.253,513.409 440.986,512.775 441.667,510.985C442.875,507.807 441.644,502.139 438.831,497.938C436.924,495.089 434.949,493.457 430.946,491.422C420.668,486.196 411.46,487.131 401.511,494.409C390.334,502.586 378.461,507.627 359.219,512.364C343,516.357 332.944,517.59 315.984,517.664L300.693,517.732L297.173,514.068C281.83,498.099 252.604,455.796 231.371,418.825C228.929,414.572 225.02,408.251 222.685,404.779C220.351,401.307 216.395,394.347 213.895,389.312C207.8,377.037 205.227,373.327 196.792,364.649C187.996,355.599 185.093,353.182 163.581,336.996C121.378,305.241 99.453,284.152 76.555,253.289C66.299,239.466 54.588,222.64 55.223,222.64C57.25,222.64 95.637,214.255 109.447,210.796C171.814,195.174 241.927,169.999 288.774,146.408L294.475,143.537L307.991,150.052C333.132,162.173 368.988,176.74 400.468,187.622C436.674,200.138 494.191,215.458 527.543,221.468C531.619,222.202 535.337,223.041 535.806,223.332C537.951,224.664 531.38,311.399 525.782,355.649C522.278,383.345 518.383,401.845 511.537,423.302C495.888,472.351 469.596,520.835 430.555,572.64C393.439,621.892 366.005,648.818 324.736,676.501C314.049,683.67 296.973,693.973 295.778,693.973C295.564,693.973 292.107,692.101 288.096,689.814ZM369.374,494.049C381.022,491.473 392.718,486.344 398.84,481.126L401.282,479.045L395.991,479.5C391.814,479.859 389.021,480.804 382.727,483.987C373.878,488.462 371.416,489.271 377.675,485.647C388.2,479.553 390.38,473.001 384.17,466.128C380.854,462.457 377.486,460.878 368.471,458.767L361.71,457.184L354.285,460.798C350.201,462.785 346.284,464.414 345.579,464.416C344.875,464.419 342.968,464.791 341.34,465.243C337.4,466.337 336.208,469.237 336.778,476.339C337.302,482.873 338.789,485.12 344.77,488.416C348.689,490.576 349.959,490.85 356.103,490.858C359.909,490.864 364.304,490.564 365.872,490.191C368.627,489.537 368.602,489.577 365.098,491.412C361.332,493.385 359.88,495.345 362.183,495.345C362.916,495.345 366.152,494.762 369.374,494.049ZM369.942,488.833C370.613,488.399 371.712,488.064 372.384,488.089C373.189,488.118 373.05,488.372 371.977,488.833C369.739,489.795 368.454,489.795 369.942,488.833ZM319.471,484.008C319.471,483.592 317.351,481.965 314.76,480.391C310.252,477.653 302.73,470.441 298.119,464.436C296.926,462.883 295.695,461.866 295.385,462.177C294.024,463.537 304.758,475.285 312.959,481.411C317.33,484.677 319.471,485.53 319.471,484.008ZM334.263,483.416C335.462,482.33 335.752,480.837 335.752,475.735C335.752,472.252 335.427,468.554 335.031,467.517C334.634,466.481 331.612,463.513 328.315,460.921C325.018,458.33 321.221,454.722 319.878,452.904C316.056,447.731 314.147,446.767 305.681,445.738C298.374,444.85 297.934,444.884 296.341,446.477C293.687,449.131 294.007,456.384 297.003,461.497C301.412,469.021 314.842,480.976 322.251,483.973C325.329,485.218 332.647,484.878 334.263,483.416ZM417.462,462.411C417.742,462.616 417.792,462.544 417.575,462.252C417.357,461.96 418.246,459.854 419.55,457.571C422.979,451.57 427.747,436.734 426.247,436.734C425.386,436.734 421.325,445.555 418.459,453.647C417.306,456.905 415.808,460.642 415.131,461.951C413.473,465.158 413.622,466.031 415.454,463.836C416.279,462.847 417.183,462.206 417.462,462.411L417.462,462.411ZM389.261,458.742C396.52,455.446 404.137,446.349 406.275,438.42C407.197,434.999 407.282,434.91 407.333,437.318C407.45,442.882 416.164,448.387 419.741,445.155C423.987,441.318 427.726,430.492 427.709,422.081C427.701,417.41 427.376,415.098 425.686,407.647C425.167,405.363 420.778,400.313 417.563,398.304L415.121,396.777L417.352,397.305C422.236,398.46 420.926,394.158 413.246,383.821C403.998,371.374 391.307,361.148 386.581,362.334C385.488,362.608 384.595,363.002 384.595,363.21C384.595,364.025 389.031,371.312 390.632,373.126C391.565,374.183 394.397,376.648 396.926,378.604C399.454,380.56 403.227,384.547 405.309,387.465C407.391,390.383 410.399,393.657 411.993,394.74C414.739,396.606 414.791,396.724 412.984,396.981C411.399,397.207 410.656,398.422 408.585,404.172C407.215,407.978 405.456,412.055 404.676,413.233C403.318,415.283 403.326,415.492 404.853,418.117C405.73,419.626 406.656,422.692 406.91,424.93L407.372,429.001L406.31,424.93C404.949,419.713 403.903,417.835 401.002,415.393C398.074,412.93 386.496,409.019 380.524,408.477C375.329,408.005 374.122,408.765 363.316,419.311C355.131,427.299 354.836,428.091 356.48,437.657C359.141,453.147 360.522,455.375 368.995,457.855C379.167,460.833 384.172,461.052 389.261,458.742L389.261,458.742ZM314.528,442.73C315.455,441.55 316.215,440.076 316.215,439.453C316.215,436.928 319.666,428.74 322.412,424.749L325.337,420.497L324.032,416.667C322.323,411.65 322.464,411.056 324.355,415.309C325.188,417.181 326.841,419.35 328.029,420.128C330.789,421.936 342.757,424.492 349.313,424.673C355.251,424.836 357.617,423.551 366.272,415.454C373.55,408.645 374.328,406.976 373.789,399.329C373.255,391.765 370.713,384.768 367.278,381.41C364.795,378.983 359.471,376.918 354.068,376.287C352.725,376.131 356.967,376.165 363.495,376.363C376.872,376.769 382.576,375.847 385.423,372.816C387.813,370.272 387.138,367.642 383.046,363.55C378.522,359.025 370.774,355.481 363.381,354.553C356.837,353.732 345.936,354.498 341.992,356.057C340.724,356.559 339.394,356.789 339.037,356.568C337.71,355.748 321.112,362.126 322.073,363.087C322.637,363.651 332.84,360.99 334.644,359.807C336.227,358.77 336.357,358.802 336.006,360.143C335.567,361.822 339.947,371.074 342.494,373.849C343.419,374.856 345.12,375.726 346.273,375.782C347.426,375.838 346.45,376.164 344.104,376.506C333.987,377.983 321.275,391.006 321.071,400.102L321.007,402.951L320.036,400.111C318.836,396.606 316.296,395.303 309.535,394.725C302.638,394.135 299.697,395.777 296.116,402.212C292.828,408.123 292.735,407.69 295.731,400.417C297.002,397.334 299.052,391.773 300.287,388.06C301.522,384.347 303.789,379.442 305.325,377.16C306.861,374.878 307.975,372.867 307.8,372.692C307.625,372.518 305.41,374.612 302.879,377.346C294.596,386.292 289.147,396.29 286.145,408.046C284.409,414.847 284.056,418.011 285.033,418.011C285.344,418.011 286.654,417.004 287.944,415.772L290.29,413.534L289.617,415.976C288.558,419.82 288.858,429.531 290.133,432.664C293.728,441.503 298.496,444.873 307.405,444.874C312.308,444.874 313.006,444.664 314.528,442.73L314.528,442.73ZM321.977,410.21C322.016,409.261 322.209,409.069 322.469,409.718C322.704,410.306 322.675,411.008 322.405,411.278C322.134,411.549 321.942,411.068 321.977,410.21L321.977,410.21ZM321.258,406.207C321.275,404.864 321.457,404.413 321.663,405.205C321.869,405.997 321.856,407.096 321.633,407.647C321.41,408.199 321.241,407.551 321.258,406.207L321.258,406.207ZM321.39,610.848L318.172,607.629L315.184,608.878C307.134,612.241 297.245,608.889 293.304,601.458C292.151,599.286 290.17,594.463 288.9,590.741C286.49,583.677 286.593,583.808 275.716,573.906C272.461,570.943 271.442,569.459 271.442,567.684C271.442,565.637 271.739,565.353 273.884,565.353C275.227,565.353 276.326,565.016 276.326,564.604C276.326,563.719 263.972,552.267 254.821,544.669C251.275,541.725 239.574,532.629 228.817,524.454C204.687,506.116 199.779,502.078 190.155,492.639C177.185,479.918 168.515,467.556 164.08,455.457C163.178,452.995 161.281,446.767 159.865,441.618C156.239,428.427 153.866,424.017 149.055,421.529C146.756,420.34 146.693,420.374 141.94,425.276C139.303,427.996 136.53,430.222 135.778,430.222C134.559,430.222 127.825,428.694 106.73,423.632C100.127,422.048 85.996,416.382 78.964,412.5C75.364,410.513 74.827,409.847 73.888,406.207C71.504,396.967 70.296,389.465 67.139,364.284C65.315,349.733 63.262,333.615 62.577,328.466C59.457,305.023 58.102,292.682 56.943,277.181C55.391,256.417 54.314,238.605 54.589,238.229C54.704,238.072 56.562,240.426 58.719,243.459C76.581,268.584 85.851,279.749 103.289,297.142C119.383,313.195 131.334,323.342 156.255,342.112C177.873,358.394 184.828,364.109 191.305,370.91C197.652,377.574 200.052,381.171 206.436,393.59C209.313,399.186 214.146,407.612 217.176,412.313C220.206,417.014 226.262,426.905 230.633,434.292C255.693,476.645 282.711,513.662 298.148,526.796C300.972,529.198 303.635,531.163 304.066,531.163C304.503,531.163 304.614,530.227 304.316,529.041C303.62,526.268 305.111,525.336 309.295,525.93C323.457,527.94 347.628,524.909 370.349,518.273C385.858,513.743 393.423,510.302 403.963,502.98C411.566,497.698 413.334,496.973 418.616,496.973C424.774,496.973 429.93,499.532 432.211,503.72C433.803,506.641 433.805,506.782 432.348,510.886L430.861,515.073L433.328,517.623C435.747,520.125 435.767,520.211 434.341,522.095C432.939,523.948 432.799,523.97 430.354,522.705C428.96,521.985 427.344,521.406 426.762,521.419C426.18,521.433 424.145,523.538 422.24,526.099C420.334,528.661 417.455,532.304 415.842,534.196L412.908,537.636L415.032,540.161C417.582,543.191 417.614,543.522 415.538,545.4C413.971,546.819 413.815,546.793 410.632,544.587C407.754,542.592 407.22,542.462 406.349,543.54C404.976,545.237 393.132,554.765 388.665,557.765C386.65,559.118 377.302,564.826 367.891,570.449C358.481,576.072 349.141,582.127 347.138,583.905L343.494,587.138L345.707,590.248C347.766,593.142 347.827,593.459 346.594,594.822C344.851,596.747 344.149,596.676 340.971,594.252C339.503,593.133 338.004,592.233 337.638,592.252C337.272,592.272 334.231,594.81 330.881,597.892L324.788,603.497L326.607,607.24C327.607,609.299 328.426,611.115 328.426,611.275C328.426,611.435 327.567,612.129 326.517,612.817C324.696,614.01 324.463,613.921 321.391,610.848L321.39,610.848ZM312.88,604.862C317.717,603.155 323.637,599.027 333.178,590.703C341.501,583.443 363.304,568.409 381.745,557.213C395.41,548.917 401.595,544.068 411.6,533.805C420.589,524.584 426.43,516.498 428.956,509.777C430.813,504.837 430.077,504.022 427.477,508.14C424.203,513.326 417.99,518.238 408.136,523.43C396.998,529.298 395.556,530.511 385.418,542.538C375.062,554.824 373.106,556.523 354.95,569.017C346.491,574.837 337.337,581.331 334.608,583.448C326.797,589.507 316.88,595.978 313.855,596.99C309.891,598.315 303.537,598.131 300.504,596.603C299.071,595.881 296.708,594.161 295.253,592.78C292.91,590.556 292.607,590.455 292.607,591.89C292.607,594.475 297.643,602.166 300.665,604.197C303.889,606.364 307.991,606.587 312.88,604.862Z" style="fill:rgb(5,130,19);fill-rule:nonzero;"/>
                        <path id="path848" d="M282.216,720.039C224.47,684.933 184.213,646.045 134.148,577.005C84.866,509.045 52.838,439.048 41.487,374.495C35.435,340.078 28.09,263.242 25.914,211.574L25.362,198.473L29.031,197.97C43.555,195.979 96.599,183.412 125.728,175.061C179.803,159.558 237.131,138.075 280.469,117.074L296.416,109.346L307.74,115.013C348.457,135.389 411.682,159.255 466.813,175.061C495.823,183.378 548.98,195.978 563.391,197.953L566.941,198.44L566.938,203.824C566.927,217.603 562.562,277.854 559.145,311.371C553.34,368.325 548.421,394.788 537.634,427.104C518.086,485.671 487.372,540.487 439.734,601.833C397.668,656.002 360.32,690.005 309.134,720.734C302.329,724.82 296.467,728.146 296.109,728.126C295.751,728.106 289.499,724.467 282.217,720.039L282.216,720.039ZM303.631,705.27C313.761,699.478 334.99,685.448 344.938,677.969C379.913,651.676 405.264,625.214 440.749,577.961C492.225,509.416 524.481,440.573 535.526,375.681C541.028,343.361 548.83,258.38 549.946,218.618L550.116,212.56L531.064,208.669C455.016,193.137 374.231,166.393 309.49,135.316L295.846,128.767L283.034,134.955C215.987,167.338 129.08,195.722 51.741,210.495L41.657,212.422L42.196,224.654C44.691,281.276 52.341,357.174 58.627,387.69C66.913,427.906 85.554,474.681 109.805,516.104C129.399,549.572 161.532,593.87 187.906,623.772C208.895,647.569 237.149,672.137 264.93,690.749C273.075,696.206 294.95,709.439 295.826,709.439C296.108,709.439 299.62,707.563 303.631,705.27ZM296.306,693.101C296.751,692.381 296.557,692.217 295.665,692.559C294.152,693.139 284.402,687.692 269.407,677.888C229.113,651.544 200.317,624.131 165.731,579.192C150.906,559.931 135.684,538.49 136.834,538.49C137.165,538.49 136.83,538.032 136.089,537.472C133.944,535.851 119.982,512.958 120.424,511.788C120.645,511.205 120.501,510.928 120.104,511.173C119.097,511.796 110.035,495.555 110.747,494.404C111.08,493.865 110.971,493.686 110.491,493.982C109.746,494.443 102.3,480.333 96.058,466.636C89.953,453.237 78.873,423.893 79.632,423.133C79.816,422.95 82.845,424.282 86.363,426.093C92.474,429.241 98.649,431.061 119.623,435.896C124.1,436.929 129.679,438.28 132.02,438.9C135.756,439.888 136.653,439.869 139.347,438.746C141.035,438.042 143.525,436.392 144.881,435.081L147.345,432.695L149.998,441.431C154.283,455.54 156.011,460.455 158.51,465.633C163.309,475.577 165.055,478.176 173.825,488.426C184.45,500.845 196.467,511.559 215.196,525.312C219.044,528.138 223.762,531.758 225.681,533.357C227.599,534.955 231.503,537.955 234.356,540.022C242.286,545.769 255.176,556.352 258.852,560.134C261.786,563.153 262.109,563.876 261.831,566.796C261.642,568.779 262.057,571.207 262.884,572.949C264.179,575.679 269.658,581.251 275.426,585.705C277.51,587.314 278.619,589.372 280.726,595.542C284.585,606.844 289.812,613.853 296.573,616.789C301.491,618.925 308.161,619.82 312.759,618.961C316.374,618.286 316.499,618.336 320.096,621.933C324.075,625.913 324.533,626.119 325.85,624.533C326.334,623.949 329.675,621.484 333.276,619.053C336.876,616.622 339.822,614.101 339.822,613.451C339.822,612.8 339.043,610.66 338.092,608.694C335.758,603.873 336.993,602.504 340.951,605.523C342.509,606.712 344.323,607.684 344.982,607.684C346.308,607.684 359.359,595.676 359.359,594.456C359.359,594.034 358.569,592.58 357.604,591.225C356.161,589.198 356.053,588.646 356.994,588.117C357.623,587.763 359.192,586.565 360.481,585.456C361.77,584.346 366.349,581.525 370.657,579.186C374.965,576.848 380.87,573.376 383.78,571.472C386.691,569.568 391.072,566.775 393.517,565.266C395.962,563.756 400.172,560.594 402.873,558.239C405.573,555.884 408.032,553.957 408.337,553.957C408.642,553.957 409.979,554.873 411.31,555.992C412.64,557.111 414.233,558.027 414.85,558.027C416.198,558.027 428.931,545.213 429.654,543.128C429.934,542.322 429.856,541.851 429.482,542.082C429.108,542.313 427.762,541.416 426.49,540.089C424.41,537.918 424.38,537.253 426.375,537.6C426.744,537.664 426.817,537.346 426.537,536.893C426.257,536.44 426.731,535.314 427.59,534.392C429.107,532.764 429.237,532.756 432.117,534.129C433.943,535 435.353,535.249 435.788,534.778C439.121,531.169 447.276,520.323 447.276,519.499C447.276,518.927 446.009,517.23 444.46,515.729C441.883,513.232 441.684,512.704 442.12,509.526C442.382,507.615 442.341,504.693 442.029,503.031C441.249,498.871 434.628,491.989 429.124,489.617C421.055,486.14 407.365,487.619 403.4,492.396C402.009,494.073 390.057,501.225 386.223,502.676C384.655,503.269 382.824,504.189 382.152,504.719C380.6,505.946 369.477,509.392 358.952,511.907C343.214,515.668 326.054,517.49 310.899,517.009L300.341,516.674L293.252,508.689C289.354,504.297 286.319,500.549 286.509,500.359C286.698,500.169 286.042,499.375 285.05,498.594C284.058,497.813 281.803,495.023 280.039,492.393C278.276,489.764 276.027,486.696 275.042,485.577C273.18,483.46 267.49,475.215 257.345,459.935C251.405,450.987 247.887,445.338 239.958,432.012C234.081,422.134 230.289,415.975 224.702,407.233C218.42,397.404 208.605,378.22 209.29,377.11C209.585,376.634 209.448,376.477 208.986,376.763C208.523,377.049 207.23,375.915 206.112,374.243C201,366.602 182.575,349.954 167.611,339.456C165.058,337.665 160.909,334.529 158.391,332.488C155.873,330.446 152.515,327.882 150.929,326.789C143.758,321.849 125.677,306.316 114.307,295.326C101.726,283.166 88.98,269.106 81.186,258.789C69.975,243.95 66.483,239.169 65.487,237.301C64.893,236.185 62.636,232.837 60.471,229.86C58.305,226.884 56.534,224.048 56.534,223.56C56.534,222.529 55.942,222.682 74.443,218.938C141.889,205.293 222.392,178.544 280.259,150.552L294.367,143.728L301.424,147.245C305.305,149.179 313.243,152.917 319.064,155.551C324.884,158.184 329.83,160.528 330.053,160.76C330.277,160.991 330.852,161.25 331.332,161.335C331.811,161.42 337.912,163.867 344.89,166.773C386.036,183.906 433.352,199.465 478.617,210.745C497.319,215.406 521.232,220.692 527.506,221.552C529.519,221.828 531.341,222.335 531.553,222.678C531.765,223.021 532.624,223.122 533.462,222.903C534.862,222.537 534.959,222.954 534.666,228.067C531.911,276.159 530.168,299.277 527.006,329.687C521.311,384.453 515.525,410.049 499.957,449.352C493.027,466.849 475.249,502.951 473.956,502.152C473.459,501.844 473.306,501.982 473.606,502.468C475.091,504.87 445.567,550.303 426.722,574.617C410.575,595.451 409.73,596.4 408.314,595.294C407.131,594.37 407.104,594.41 408.076,595.65C409.044,596.886 408.443,597.907 402.898,604.443C399.447,608.509 393.735,614.89 390.202,618.621C383.891,625.289 381.349,629.01 386.309,624.321C394.817,616.278 416.067,590.491 433.8,566.693C481.507,502.666 511.407,438.234 521.71,377.255C526.654,347.989 533.11,280.221 534.888,238.921C535.186,231.982 535.711,225.571 536.054,224.676C536.414,223.735 536.54,224.938 536.352,227.525C536.173,229.987 535.642,239.328 535.171,248.283C532.579,297.583 526.373,358.492 521.276,384.635C509.864,443.177 480.309,505.364 434.612,566.982C403.807,608.52 378.644,635.505 349.183,658.596C346.945,660.351 345.811,660.969 346.664,659.971C349.211,656.988 347.418,657.879 340.791,662.886C337.348,665.488 332.057,669.367 329.033,671.507C326.009,673.646 323.717,675.69 323.938,676.048C324.313,676.654 322.963,677.711 317.843,680.824C314.784,682.683 316.965,680.674 320.677,678.213C322.46,677.031 323.603,676.064 323.216,676.064C322.83,676.064 317.891,678.952 312.241,682.481C306.591,686.011 300.778,689.5 299.323,690.235C296.67,691.576 295.608,692.929 297.899,692.05C299.721,691.351 299.372,692.152 297.393,693.211C296.031,693.94 295.802,693.917 296.306,693.102L296.306,693.101ZM353.512,654.396C364.799,645.225 384.969,626.443 383.557,626.418C383.21,626.412 378.448,630.669 372.974,635.879C367.501,641.089 359.634,648.089 355.492,651.435C351.351,654.781 347.963,657.661 347.963,657.836C347.963,658.66 349.237,657.869 353.512,654.396ZM369.374,494.049C381.022,491.473 392.718,486.344 398.84,481.126L401.282,479.045L395.991,479.5C391.814,479.859 389.021,480.804 382.727,483.987C373.878,488.462 371.416,489.271 377.675,485.647C388.2,479.553 390.38,473.001 384.17,466.128C380.854,462.457 377.486,460.878 368.471,458.767L361.71,457.184L354.285,460.798C350.201,462.785 346.284,464.414 345.579,464.416C344.875,464.419 342.968,464.791 341.34,465.243C337.4,466.337 336.208,469.237 336.778,476.339C337.302,482.873 338.789,485.12 344.77,488.416C348.689,490.576 349.959,490.85 356.103,490.858C359.909,490.864 364.304,490.564 365.872,490.191C368.627,489.537 368.602,489.577 365.098,491.412C361.332,493.385 359.88,495.345 362.183,495.345C362.916,495.345 366.152,494.762 369.374,494.049ZM369.942,488.833C370.613,488.399 371.712,488.064 372.384,488.089C373.189,488.118 373.05,488.372 371.977,488.833C369.739,489.795 368.454,489.795 369.942,488.833ZM324.355,489.647C324.355,489.199 323.967,488.833 323.493,488.833C323.019,488.833 322.857,489.199 323.134,489.647C323.411,490.095 323.799,490.461 323.996,490.461C324.193,490.461 324.355,490.095 324.355,489.647ZM318.657,486.827C318.657,486.618 317.833,486.009 316.825,485.472C315.164,484.587 315.098,484.623 316.111,485.851C317.151,487.112 318.657,487.689 318.657,486.827ZM319.471,484.008C319.471,483.592 317.351,481.965 314.76,480.391C310.252,477.653 302.73,470.441 298.119,464.436C296.926,462.883 295.695,461.866 295.385,462.177C294.024,463.537 304.758,475.285 312.959,481.411C317.33,484.677 319.471,485.53 319.471,484.008ZM334.263,483.416C335.462,482.33 335.752,480.837 335.752,475.735C335.752,472.252 335.427,468.554 335.031,467.517C334.634,466.481 331.612,463.513 328.315,460.921C325.018,458.33 321.221,454.722 319.878,452.904C316.056,447.731 314.147,446.767 305.681,445.738C298.374,444.85 297.934,444.884 296.341,446.477C293.687,449.131 294.007,456.384 297.003,461.497C301.412,469.021 314.842,480.976 322.251,483.973C325.329,485.218 332.647,484.878 334.263,483.416ZM401.35,481.041L404.539,478.132L401.282,480.385C396.896,483.42 396.308,483.949 397.321,483.949C397.784,483.949 399.597,482.64 401.35,481.041ZM416.318,465.76C416.304,465.242 415.162,466.101 413.777,467.668C412.392,469.235 410.09,471.799 408.662,473.366C403.492,479.039 404.97,478.511 410.586,472.679C413.752,469.391 416.332,466.278 416.318,465.76ZM417.653,460.67C418.832,458.658 419.975,457.19 420.193,457.409C420.412,457.627 419.778,458.947 418.784,460.341C416.839,463.073 416.934,464.535 418.904,462.178C420.627,460.115 422.146,456.271 421.238,456.271C420.816,456.271 421.21,454.545 422.115,452.436C423.397,449.444 426.925,438.09 426.925,436.954C426.925,436.833 426.613,436.734 426.231,436.734C425.384,436.734 421.305,445.612 418.459,453.647C417.306,456.905 415.808,460.642 415.131,461.951C412.535,466.971 414.564,465.941 417.653,460.67L417.653,460.67ZM389.261,458.742C396.52,455.446 404.137,446.349 406.275,438.42C407.197,434.999 407.282,434.91 407.333,437.318C407.45,442.882 416.164,448.387 419.741,445.155C423.987,441.318 427.726,430.492 427.709,422.081C427.701,417.41 427.376,415.098 425.686,407.647C425.167,405.363 420.778,400.313 417.563,398.304L415.121,396.777L417.352,397.305C422.236,398.46 420.926,394.158 413.246,383.821C403.998,371.374 391.307,361.148 386.581,362.334C385.488,362.608 384.595,363.002 384.595,363.21C384.595,364.025 389.031,371.312 390.632,373.126C391.565,374.183 394.397,376.648 396.926,378.604C399.454,380.56 403.227,384.547 405.309,387.465C407.391,390.383 410.399,393.657 411.993,394.74C414.739,396.606 414.791,396.724 412.984,396.981C411.399,397.207 410.656,398.422 408.585,404.172C407.215,407.978 405.456,412.055 404.676,413.233C403.318,415.283 403.326,415.492 404.853,418.117C405.73,419.626 406.656,422.692 406.91,424.93L407.372,429.001L406.31,424.93C404.949,419.713 403.903,417.835 401.002,415.393C398.074,412.93 386.496,409.019 380.524,408.477C375.329,408.005 374.122,408.765 363.316,419.311C355.131,427.299 354.836,428.091 356.48,437.657C359.141,453.147 360.522,455.375 368.995,457.855C379.167,460.833 384.172,461.052 389.261,458.742L389.261,458.742ZM424.793,450.124C425.071,449.399 424.935,449.072 424.473,449.358C424.031,449.631 423.669,450.2 423.669,450.621C423.669,451.792 424.252,451.534 424.793,450.124ZM314.528,442.73C315.455,441.55 316.215,440.076 316.215,439.453C316.215,436.928 319.666,428.74 322.412,424.749L325.337,420.497L324.032,416.667C322.323,411.65 322.464,411.056 324.355,415.309C325.188,417.181 326.841,419.35 328.029,420.128C330.789,421.936 342.757,424.492 349.313,424.673C355.251,424.836 357.617,423.551 366.272,415.454C373.55,408.645 374.328,406.976 373.789,399.329C373.255,391.765 370.713,384.768 367.278,381.41C364.795,378.983 359.471,376.918 354.068,376.287C352.725,376.131 356.967,376.165 363.495,376.363C376.872,376.769 382.576,375.847 385.423,372.816C387.813,370.272 387.138,367.642 383.046,363.55C378.522,359.025 370.774,355.481 363.381,354.553C356.837,353.732 345.936,354.498 341.992,356.057C340.724,356.559 339.394,356.789 339.037,356.568C337.71,355.748 321.112,362.126 322.073,363.087C322.637,363.651 332.84,360.99 334.644,359.807C336.227,358.77 336.357,358.802 336.006,360.143C335.567,361.822 339.947,371.074 342.494,373.849C343.419,374.856 345.12,375.726 346.273,375.782C347.426,375.838 346.45,376.164 344.104,376.506C333.987,377.983 321.275,391.006 321.071,400.102L321.007,402.951L320.036,400.111C318.836,396.606 316.296,395.303 309.535,394.725C302.638,394.135 299.697,395.777 296.116,402.212C292.828,408.123 292.735,407.69 295.731,400.417C297.002,397.334 299.052,391.773 300.287,388.06C301.522,384.347 303.789,379.442 305.325,377.16C306.861,374.878 307.975,372.867 307.8,372.692C307.625,372.518 305.41,374.612 302.879,377.346C294.596,386.292 289.147,396.29 286.145,408.046C284.409,414.847 284.056,418.011 285.033,418.011C285.344,418.011 286.654,417.004 287.944,415.772L290.29,413.534L289.617,415.976C288.558,419.82 288.858,429.531 290.133,432.664C293.728,441.503 298.496,444.873 307.405,444.874C312.308,444.874 313.006,444.664 314.528,442.73L314.528,442.73ZM321.977,410.21C322.016,409.261 322.209,409.069 322.469,409.718C322.704,410.306 322.675,411.008 322.405,411.278C322.134,411.549 321.942,411.068 321.977,410.21L321.977,410.21ZM321.258,406.207C321.275,404.864 321.457,404.413 321.663,405.205C321.869,405.997 321.856,407.096 321.633,407.647C321.41,408.199 321.241,407.551 321.258,406.207L321.258,406.207ZM428.303,436.139C428.097,435.347 427.914,435.798 427.898,437.141C427.881,438.484 428.05,439.132 428.273,438.581C428.496,438.03 428.509,436.931 428.303,436.139L428.303,436.139ZM429.367,432.257C429.367,431.585 429.223,431.036 429.047,431.036C428.871,431.036 428.516,431.585 428.259,432.257C428.001,432.928 428.145,433.478 428.579,433.478C429.012,433.478 429.367,432.928 429.367,432.257ZM430.181,429.408C430.181,428.96 429.815,428.594 429.367,428.594C428.919,428.594 428.553,428.96 428.553,429.408C428.553,429.855 428.919,430.222 429.367,430.222C429.815,430.222 430.181,429.855 430.181,429.408ZM430.181,426.152C430.181,425.704 429.815,425.337 429.367,425.337C428.919,425.337 428.553,425.704 428.553,426.152C428.553,426.599 428.919,426.966 429.367,426.966C429.815,426.966 430.181,426.599 430.181,426.152ZM430.016,421.205C429.745,417.653 428.553,417.332 428.553,420.812C428.553,422.406 428.925,423.709 429.38,423.709C429.835,423.709 430.121,422.583 430.016,421.205ZM429.367,415.114C429.367,414.416 428.995,414.075 428.54,414.356C428.085,414.637 427.923,415.208 428.181,415.625C428.879,416.754 429.367,416.544 429.367,415.114ZM425.398,400.699C424.594,399.901 424.5,399.995 424.942,401.155C425.248,401.958 425.703,402.409 425.954,402.159C426.204,401.908 425.954,401.251 425.398,400.699ZM422.041,391.603C422.041,391.405 421.674,391.017 421.227,390.741C420.779,390.464 420.413,390.625 420.413,391.1C420.413,391.574 420.779,391.962 421.227,391.962C421.674,391.962 422.041,391.8 422.041,391.603ZM419.748,387.715C419.164,387.131 418.784,387.083 418.784,387.593C418.784,388.055 419.029,388.678 419.327,388.977C419.626,389.275 420.059,389.33 420.29,389.099C420.522,388.868 420.276,388.245 419.748,387.715ZM414.001,379.534C413.197,378.736 413.104,378.829 413.545,379.99C413.851,380.792 414.306,381.244 414.557,380.994C414.808,380.743 414.557,380.086 414.001,379.534ZM300.714,375.274C300.729,374.826 299.839,375.559 298.738,376.902C297.637,378.245 296.725,379.71 296.711,380.158C296.697,380.606 297.586,379.873 298.687,378.53C299.788,377.187 300.701,375.721 300.714,375.274ZM412.272,377.357C412.272,376.936 411.906,376.364 411.458,376.088C411.01,375.811 410.644,376.156 410.644,376.854C410.644,377.552 411.01,378.123 411.458,378.123C411.906,378.123 412.272,377.778 412.272,377.357ZM409.83,374.508C409.83,374.31 409.464,373.922 409.016,373.646C408.568,373.369 408.202,373.531 408.202,374.005C408.202,374.479 408.568,374.867 409.016,374.867C409.464,374.867 409.83,374.705 409.83,374.508ZM304.922,371.814C305.934,370.523 305.906,370.494 304.615,371.507C303.831,372.121 303.19,372.762 303.19,372.931C303.19,373.601 303.858,373.17 304.922,371.814ZM404.132,369.088C399.091,364.724 398.161,365.069 403.035,369.495C405.205,371.466 407.164,372.894 407.388,372.669C407.612,372.444 406.146,370.832 404.132,369.088ZM312.958,365.002C312.958,364.554 312.592,364.414 312.144,364.691C311.697,364.968 311.33,365.56 311.33,366.008C311.33,366.456 311.697,366.596 312.144,366.319C312.592,366.043 312.958,365.45 312.958,365.002ZM398.433,365.168C398.433,364.362 391.058,359.991 390.552,360.497C390.299,360.75 397.573,365.872 398.23,365.902C398.342,365.908 398.433,365.577 398.433,365.168L398.433,365.168ZM386.155,358.282C385.324,357.538 380.524,355.329 380.524,355.69C380.524,356.196 384.745,358.509 385.748,358.553C386.158,358.57 386.341,358.449 386.155,358.282L386.155,358.282ZM301.562,690.366C301.562,690.143 302.294,689.567 303.19,689.088C304.085,688.609 304.818,688.4 304.818,688.624C304.818,688.848 304.085,689.423 303.19,689.902C302.294,690.381 301.562,690.59 301.562,690.366ZM305.632,687.924C305.632,687.7 306.365,687.125 307.26,686.646C308.156,686.167 308.888,685.958 308.888,686.182C308.888,686.406 308.156,686.981 307.26,687.46C306.365,687.939 305.632,688.148 305.632,687.924ZM309.702,685.482C309.702,685.258 310.435,684.683 311.33,684.204C312.226,683.725 312.958,683.516 312.958,683.739C312.958,683.963 312.226,684.539 311.33,685.018C310.435,685.497 309.702,685.706 309.702,685.482ZM325.169,675.735C325.169,675.511 326.818,674.193 328.832,672.807C330.847,671.421 332.496,670.47 332.496,670.694C332.496,670.918 330.847,672.235 328.832,673.621C326.818,675.007 325.169,675.958 325.169,675.735ZM333.31,670.069C333.31,669.845 334.409,668.879 335.752,667.923C337.095,666.966 338.194,666.367 338.194,666.591C338.194,666.815 337.095,667.781 335.752,668.737C334.409,669.693 333.31,670.293 333.31,670.069ZM339.008,665.987C339.008,665.819 339.649,665.177 340.433,664.563C341.724,663.55 341.752,663.579 340.74,664.87C339.676,666.226 339.008,666.657 339.008,665.987ZM342.264,663.545C342.264,663.376 342.905,662.735 343.689,662.121C344.98,661.108 345.009,661.137 343.996,662.428C342.933,663.784 342.264,664.215 342.264,663.545ZM321.39,610.848L318.172,607.629L315.184,608.877C307.134,612.241 297.245,608.889 293.304,601.458C292.151,599.285 290.17,594.463 288.9,590.741C286.49,583.677 286.593,583.807 275.716,573.905C272.461,570.943 271.442,569.459 271.442,567.684C271.442,565.637 271.739,565.353 273.884,565.353C275.227,565.353 276.326,565.016 276.326,564.604C276.326,563.719 263.972,552.267 254.821,544.669C251.275,541.725 239.574,532.629 228.817,524.454C204.687,506.116 199.779,502.078 190.155,492.639C177.185,479.918 168.515,467.556 164.08,455.457C163.178,452.995 161.281,446.767 159.865,441.618C156.239,428.427 153.866,424.017 149.055,421.529C146.756,420.34 146.693,420.374 141.94,425.276C139.303,427.996 136.53,430.222 135.778,430.222C134.559,430.222 127.825,428.694 106.73,423.632C100.127,422.048 85.996,416.382 78.964,412.5C75.364,410.513 74.827,409.847 73.888,406.207C71.504,396.967 70.296,389.465 67.139,364.284C65.315,349.733 63.262,333.615 62.577,328.466C59.457,305.022 58.102,292.682 56.943,277.181C55.391,256.417 54.314,238.605 54.589,238.229C54.704,238.072 56.562,240.426 58.719,243.459C76.581,268.584 85.851,279.749 103.289,297.142C119.383,313.195 131.334,323.341 156.255,342.112C177.873,358.394 184.828,364.109 191.305,370.91C197.652,377.574 200.052,381.171 206.436,393.59C209.313,399.186 214.146,407.612 217.176,412.313C220.206,417.014 226.262,426.904 230.633,434.292C255.693,476.645 282.711,513.662 298.148,526.795C300.972,529.198 303.635,531.163 304.066,531.163C304.503,531.163 304.614,530.227 304.316,529.041C303.62,526.268 305.111,525.336 309.295,525.93C323.457,527.94 347.628,524.908 370.349,518.273C385.858,513.743 393.423,510.301 403.963,502.98C411.567,497.698 413.334,496.973 418.616,496.973C424.774,496.973 429.93,499.532 432.211,503.72C433.803,506.641 433.805,506.782 432.348,510.886L430.861,515.073L433.328,517.623C435.747,520.125 435.767,520.21 434.342,522.095C432.939,523.948 432.8,523.97 430.354,522.705C428.96,521.984 427.344,521.405 426.762,521.418C426.18,521.433 424.145,523.538 422.24,526.099C420.334,528.661 417.455,532.304 415.842,534.196L412.908,537.636L415.032,540.16C417.582,543.191 417.614,543.521 415.538,545.4C413.971,546.818 413.815,546.793 410.632,544.587C407.754,542.592 407.22,542.462 406.349,543.54C404.976,545.237 393.132,554.765 388.665,557.765C386.65,559.118 377.302,564.826 367.891,570.449C358.481,576.071 349.141,582.127 347.138,583.905L343.494,587.138L345.707,590.248C347.766,593.142 347.828,593.459 346.594,594.822C344.852,596.747 344.149,596.676 340.971,594.252C339.503,593.132 338.004,592.233 337.638,592.252C337.272,592.272 334.231,594.81 330.881,597.892L324.788,603.497L326.607,607.24C327.607,609.299 328.426,611.114 328.426,611.275C328.426,611.435 327.567,612.129 326.517,612.817C324.696,614.01 324.463,613.921 321.391,610.848L321.39,610.848ZM312.88,604.862C317.717,603.155 323.637,599.026 333.178,590.703C341.501,583.443 363.304,568.408 381.745,557.213C395.41,548.917 401.595,544.068 411.6,533.805C420.589,524.584 426.43,516.498 428.956,509.776C430.813,504.837 430.077,504.022 427.477,508.14C424.203,513.326 417.99,518.238 408.136,523.43C396.998,529.298 395.556,530.511 385.418,542.538C375.062,554.824 373.106,556.523 354.95,569.016C346.491,574.837 337.337,581.331 334.608,583.448C326.797,589.507 316.88,595.978 313.855,596.99C309.891,598.315 303.537,598.131 300.504,596.603C299.071,595.881 296.708,594.161 295.253,592.78C292.91,590.556 292.607,590.454 292.607,591.889C292.607,594.474 297.643,602.166 300.665,604.197C303.889,606.363 307.991,606.587 312.88,604.862Z" style="fill:rgb(0,126,14);fill-rule:nonzero;"/>
                        <path id="path846" d="M282.216,720.039C224.47,684.933 184.213,646.045 134.148,577.005C84.866,509.045 52.838,439.048 41.487,374.495C35.435,340.078 28.09,263.242 25.914,211.574L25.362,198.473L29.031,197.97C43.555,195.979 96.599,183.412 125.728,175.061C179.803,159.558 237.131,138.075 280.469,117.074L296.416,109.346L307.74,115.013C348.457,135.389 411.682,159.255 466.813,175.061C495.823,183.378 548.98,195.978 563.391,197.953L566.941,198.44L566.938,203.824C566.927,217.603 562.562,277.854 559.145,311.371C553.34,368.325 548.421,394.788 537.634,427.104C518.086,485.671 487.372,540.487 439.734,601.833C397.668,656.002 360.32,690.005 309.134,720.734C302.329,724.82 296.467,728.146 296.109,728.126C295.751,728.106 289.499,724.467 282.217,720.039L282.216,720.039ZM303.631,705.27C313.761,699.478 334.99,685.448 344.938,677.969C379.913,651.676 405.264,625.214 440.749,577.961C492.225,509.416 524.481,440.573 535.526,375.681C541.028,343.361 548.83,258.38 549.946,218.618L550.116,212.56L531.064,208.669C455.016,193.137 374.231,166.393 309.49,135.316L295.846,128.767L283.034,134.955C215.987,167.338 129.08,195.722 51.741,210.495L41.657,212.422L42.196,224.654C44.691,281.276 52.341,357.174 58.627,387.69C66.913,427.906 85.554,474.681 109.805,516.104C129.399,549.572 161.532,593.87 187.906,623.772C208.895,647.569 237.149,672.137 264.93,690.749C273.075,696.206 294.95,709.439 295.826,709.439C296.108,709.439 299.62,707.563 303.631,705.27ZM321.39,610.848L318.172,607.629L315.184,608.878C307.134,612.241 297.245,608.889 293.304,601.458C292.151,599.286 290.17,594.463 288.9,590.741C286.49,583.677 286.593,583.808 275.716,573.906C272.461,570.943 271.442,569.459 271.442,567.684C271.442,565.637 271.74,565.353 273.884,565.353C275.228,565.353 276.326,565.016 276.326,564.604C276.326,563.719 263.973,552.267 254.821,544.669C251.276,541.725 239.574,532.629 228.817,524.454C204.687,506.116 199.779,502.078 190.155,492.639C177.185,479.918 168.515,467.556 164.08,455.457C163.178,452.995 161.281,446.767 159.865,441.618C156.239,428.427 153.866,424.017 149.055,421.529C146.756,420.34 146.693,420.374 141.941,425.276C139.303,427.996 136.53,430.222 135.778,430.222C134.559,430.222 127.825,428.694 106.73,423.632C100.127,422.048 85.996,416.382 78.964,412.5C75.364,410.513 74.827,409.847 73.888,406.207C71.504,396.967 70.296,389.465 67.139,364.284C65.315,349.733 63.262,333.615 62.577,328.466C59.457,305.023 58.102,292.682 56.943,277.181C55.391,256.417 54.314,238.605 54.589,238.229C54.704,238.072 56.562,240.426 58.719,243.459C76.581,268.584 85.851,279.749 103.289,297.142C119.383,313.195 131.334,323.342 156.255,342.112C177.873,358.394 184.828,364.109 191.305,370.91C197.652,377.574 200.052,381.171 206.436,393.59C209.313,399.186 214.146,407.612 217.176,412.313C220.206,417.014 226.262,426.905 230.633,434.292C255.693,476.645 282.711,513.662 298.149,526.796C300.972,529.198 303.635,531.163 304.066,531.163C304.503,531.163 304.614,530.227 304.316,529.041C303.62,526.268 305.111,525.336 309.295,525.93C323.457,527.94 347.628,524.909 370.349,518.273C385.858,513.743 393.423,510.302 403.963,502.98C411.567,497.698 413.334,496.973 418.616,496.973C424.774,496.973 429.93,499.532 432.211,503.72C433.803,506.641 433.805,506.782 432.348,510.886L430.861,515.073L433.328,517.623C435.747,520.125 435.767,520.211 434.342,522.095C432.94,523.948 432.8,523.97 430.354,522.705C428.96,521.985 427.344,521.406 426.762,521.419C426.18,521.433 424.145,523.538 422.24,526.099C420.334,528.661 417.455,532.304 415.842,534.196L412.908,537.636L415.032,540.161C417.582,543.191 417.614,543.522 415.538,545.4C413.971,546.819 413.815,546.793 410.632,544.587C407.754,542.592 407.22,542.462 406.349,543.54C404.976,545.237 393.132,554.765 388.665,557.765C386.65,559.118 377.302,564.826 367.891,570.449C358.481,576.072 349.142,582.127 347.138,583.905L343.494,587.138L345.707,590.248C347.766,593.142 347.828,593.459 346.594,594.822C344.852,596.747 344.149,596.676 340.971,594.252C339.503,593.133 338.004,592.233 337.638,592.252C337.272,592.272 334.232,594.81 330.881,597.892L324.788,603.497L326.607,607.24C327.607,609.299 328.426,611.115 328.426,611.275C328.426,611.435 327.567,612.129 326.518,612.817C324.696,614.01 324.463,613.921 321.391,610.848L321.39,610.848ZM312.88,604.862C317.718,603.155 323.637,599.027 333.178,590.703C341.501,583.443 363.304,568.409 381.745,557.213C395.41,548.917 401.595,544.068 411.6,533.805C420.59,524.584 426.43,516.498 428.956,509.777C430.813,504.837 430.077,504.022 427.477,508.14C424.203,513.326 417.99,518.238 408.136,523.43C396.998,529.298 395.556,530.511 385.418,542.538C375.062,554.824 373.106,556.523 354.95,569.017C346.491,574.837 337.337,581.331 334.608,583.448C326.797,589.507 316.88,595.978 313.855,596.99C309.891,598.315 303.537,598.131 300.504,596.603C299.071,595.881 296.708,594.161 295.253,592.78C292.91,590.556 292.607,590.455 292.607,591.89C292.607,594.475 297.643,602.166 300.665,604.197C303.889,606.364 307.991,606.587 312.88,604.862ZM341.198,494.864C332.963,493.376 322.798,489.131 314.379,483.666C299.927,474.282 288.804,459.126 284.325,442.711C281.723,433.178 281.718,414.47 284.313,405.449C291.533,380.357 311.739,361.004 337.787,354.232C346.995,351.838 364.317,351.93 373.605,354.422C386.699,357.936 398.056,364.562 407.882,374.422C416.971,383.541 421.039,390.082 425.38,402.556C428.015,410.127 428.067,410.547 428.056,424.116C428.045,437.459 427.953,438.233 425.471,445.708C424.055,449.972 422.335,454.185 421.65,455.07C420.817,456.145 420.96,455.338 422.081,452.639C423.397,449.471 426.925,438.046 426.925,436.954C426.925,436.833 426.613,436.734 426.231,436.734C425.384,436.734 421.304,445.612 418.459,453.647C417.305,456.905 415.781,460.694 415.071,462.067C412.89,466.285 414.496,465.684 417.252,461.251C418.682,458.95 420.011,457.227 420.205,457.421C420.878,458.094 413.731,467.816 408.442,473.423C402.475,479.748 395.514,484.986 388.258,488.611C382.755,491.36 377.358,493.264 376.761,492.667C376.542,492.449 378.615,491.509 381.368,490.579C386.993,488.68 395.164,484.259 398.84,481.126L401.282,479.045L395.991,479.5C391.814,479.859 389.021,480.804 382.727,483.987C373.878,488.462 371.416,489.271 377.675,485.647C388.2,479.553 390.38,473.001 384.17,466.128C380.854,462.457 377.486,460.878 368.471,458.767L361.71,457.184L354.285,460.798C350.201,462.785 346.283,464.414 345.579,464.416C344.875,464.419 342.968,464.791 341.34,465.243C337.4,466.337 336.208,469.237 336.778,476.339C337.302,482.873 338.789,485.12 344.77,488.416C348.689,490.576 349.959,490.849 356.103,490.858C359.909,490.864 364.304,490.563 365.871,490.191C368.627,489.537 368.602,489.577 365.098,491.412C360.912,493.606 360.096,495.067 362.772,495.579C363.805,495.776 360.804,495.955 356.103,495.975C351.402,495.995 344.695,495.496 341.198,494.864L341.198,494.864ZM319.471,484.008C319.471,483.592 317.351,481.965 314.76,480.391C310.252,477.653 302.73,470.441 298.119,464.436C296.926,462.883 295.695,461.866 295.385,462.177C294.024,463.537 304.758,475.285 312.959,481.411C317.33,484.677 319.471,485.53 319.471,484.008ZM334.263,483.416C335.462,482.33 335.752,480.837 335.752,475.735C335.752,472.252 335.427,468.554 335.031,467.517C334.634,466.481 331.612,463.513 328.315,460.921C325.018,458.33 321.221,454.722 319.878,452.904C316.056,447.731 314.147,446.767 305.681,445.738C298.374,444.85 297.934,444.884 296.341,446.477C293.687,449.131 294.007,456.384 297.003,461.497C301.412,469.021 314.842,480.976 322.251,483.973C325.329,485.218 332.647,484.878 334.263,483.416ZM389.261,458.742C396.52,455.446 404.137,446.349 406.275,438.42C407.197,434.999 407.282,434.91 407.333,437.318C407.45,442.882 416.164,448.387 419.741,445.155C423.987,441.318 427.726,430.492 427.709,422.081C427.701,417.41 427.376,415.098 425.686,407.647C425.167,405.363 420.778,400.313 417.563,398.304L415.121,396.777L417.352,397.305C422.236,398.46 420.926,394.158 413.246,383.821C403.998,371.374 391.307,361.148 386.581,362.334C385.488,362.608 384.595,363.002 384.595,363.21C384.595,364.025 389.031,371.312 390.632,373.126C391.565,374.183 394.397,376.648 396.926,378.604C399.454,380.56 403.227,384.547 405.309,387.465C407.391,390.383 410.399,393.657 411.993,394.74C414.739,396.606 414.791,396.724 412.984,396.981C411.399,397.207 410.656,398.422 408.585,404.172C407.215,407.978 405.456,412.055 404.676,413.233C403.318,415.283 403.326,415.492 404.853,418.117C405.73,419.626 406.656,422.692 406.91,424.93L407.372,429.001L406.31,424.93C404.949,419.713 403.903,417.835 401.002,415.393C398.074,412.93 386.496,409.019 380.524,408.477C375.329,408.005 374.122,408.765 363.316,419.311C355.131,427.299 354.836,428.091 356.48,437.657C359.141,453.147 360.522,455.375 368.995,457.855C379.167,460.833 384.172,461.052 389.261,458.742L389.261,458.742ZM314.528,442.73C315.455,441.55 316.215,440.076 316.215,439.453C316.215,436.928 319.666,428.74 322.412,424.749L325.337,420.497L324.032,416.667C322.323,411.65 322.464,411.056 324.355,415.309C325.188,417.181 326.841,419.35 328.029,420.128C330.789,421.936 342.757,424.492 349.313,424.673C355.251,424.836 357.617,423.551 366.272,415.454C373.55,408.645 374.328,406.976 373.789,399.329C373.255,391.765 370.713,384.768 367.278,381.41C364.795,378.983 359.471,376.918 354.068,376.287C352.725,376.131 356.967,376.165 363.495,376.363C376.872,376.769 382.576,375.847 385.423,372.816C387.813,370.272 387.138,367.642 383.046,363.55C378.522,359.025 370.774,355.481 363.381,354.553C356.837,353.732 345.936,354.498 341.992,356.057C340.724,356.559 339.394,356.789 339.037,356.568C337.71,355.748 321.112,362.126 322.073,363.087C322.637,363.651 332.84,360.99 334.644,359.807C336.227,358.77 336.357,358.802 336.006,360.143C335.567,361.822 339.947,371.074 342.494,373.849C343.419,374.856 345.12,375.726 346.273,375.782C347.426,375.838 346.45,376.164 344.104,376.506C333.987,377.983 321.275,391.006 321.071,400.102L321.007,402.951L320.036,400.111C318.836,396.606 316.296,395.303 309.535,394.725C302.638,394.135 299.697,395.777 296.116,402.212C292.828,408.123 292.735,407.69 295.731,400.417C297.002,397.334 299.052,391.773 300.287,388.06C301.522,384.347 303.789,379.442 305.325,377.16C306.861,374.878 307.975,372.867 307.8,372.692C307.625,372.518 305.41,374.612 302.879,377.346C294.596,386.292 289.147,396.29 286.145,408.046C284.409,414.847 284.056,418.011 285.033,418.011C285.344,418.011 286.654,417.004 287.944,415.772L290.29,413.534L289.617,415.976C288.558,419.82 288.858,429.531 290.133,432.664C293.728,441.503 298.496,444.873 307.405,444.874C312.308,444.874 313.006,444.664 314.528,442.73L314.528,442.73ZM321.977,410.21C322.016,409.261 322.209,409.069 322.469,409.718C322.704,410.306 322.675,411.008 322.405,411.278C322.134,411.549 321.942,411.068 321.977,410.21L321.977,410.21ZM321.258,406.207C321.275,404.864 321.457,404.413 321.663,405.205C321.869,405.997 321.856,407.096 321.633,407.647C321.41,408.199 321.241,407.551 321.258,406.207L321.258,406.207ZM369.128,494.09C374.956,492.635 377.085,492.685 372.384,494.166C370.369,494.801 367.805,495.295 366.686,495.264C365.552,495.232 366.633,494.712 369.128,494.09L369.128,494.09ZM369.942,488.833C370.613,488.399 371.712,488.064 372.384,488.089C373.189,488.118 373.05,488.372 371.977,488.833C369.739,489.795 368.454,489.795 369.942,488.833Z" style="fill-rule:nonzero;"/>
                    </g>
                </g>
            </g>
        </g>
    </g>
</svg>
